<svg width="44" height="20" viewBox="0 0 44 20" fill="none" xmlns="http://www.w3.org/2000/svg">
<rect x="43.412" y="19.5" width="41.9259" height="19" transform="rotate(-180 43.412 19.5)" fill="white" stroke="#002A46"/>
<path d="M31.9326 10.5C32.2088 10.5 32.4326 10.2762 32.4326 10C32.4326 9.72387 32.2088 9.50002 31.9326 9.50002L31.9326 10.5ZM12.6118 9.64644C12.4166 9.84171 12.4166 10.1583 12.6118 10.3536L15.7938 13.5355C15.9891 13.7308 16.3056 13.7308 16.5009 13.5355C16.6962 13.3403 16.6962 13.0237 16.5009 12.8284L13.6725 10L16.5009 7.17157C16.6962 6.97631 16.6962 6.65973 16.5009 6.46447C16.3057 6.26921 15.9891 6.26921 15.7938 6.46447L12.6118 9.64644ZM31.9326 9.50002L12.9654 9.5L12.9654 10.5L31.9326 10.5L31.9326 9.50002Z" fill="#002A46"/>
</svg>
