<svg width="44" height="20" viewBox="0 0 44 20" fill="none" xmlns="http://www.w3.org/2000/svg">
<rect x="0.591309" y="0.5" width="41.9259" height="19" fill="white" stroke="#002A46"/>
<path d="M12.0708 9.49998C11.7947 9.49998 11.5708 9.72384 11.5708 9.99998C11.5708 10.2761 11.7947 10.5 12.0708 10.5L12.0708 9.49998ZM31.3916 10.3536C31.5869 10.1583 31.5869 9.84171 31.3916 9.64645L28.2096 6.46446C28.0144 6.2692 27.6978 6.2692 27.5025 6.46446C27.3072 6.65972 27.3072 6.97631 27.5025 7.17157L30.3309 10L27.5025 12.8284C27.3072 13.0237 27.3072 13.3403 27.5025 13.5355C27.6978 13.7308 28.0143 13.7308 28.2096 13.5355L31.3916 10.3536ZM12.0708 10.5L31.038 10.5L31.038 9.5L12.0708 9.49998L12.0708 10.5Z" fill="#002A46"/>
</svg>
