<svg width="33" height="24" viewBox="0 0 33 24" fill="none" xmlns="http://www.w3.org/2000/svg">
<path d="M14.1071 10.408V7.87593C14.1071 6.33841 12.868 5.08667 11.3333 5.08667C9.80434 5.08667 8.55957 6.33269 8.55957 7.87593V10.408" stroke="#002A46" stroke-miterlimit="10"/>
<path d="M28.5953 10.408V3.43487C28.5953 2.24601 27.6405 1.28577 26.4582 1.28577H16.5H6.54181C5.35956 1.28577 4.40466 2.24601 4.40466 3.43487V10.408" stroke="#002A46" stroke-miterlimit="10"/>
<path d="M18.8929 10.408V7.87593C18.8929 6.33841 20.132 5.08667 21.6667 5.08667C23.1957 5.08667 24.4404 6.33269 24.4404 7.87593V10.408" stroke="#002A46" stroke-miterlimit="10"/>
<path d="M31.7158 24.0001V12.7573C31.7158 11.4598 30.67 10.4138 29.3854 10.4138H16.5H3.61458C2.32433 10.4138 1.28418 11.4655 1.28418 12.7573V24.0001" stroke="#002A46" stroke-miterlimit="10"/>
<path d="M31.7158 15.8265H16.5H1.28418" stroke="#002A46" stroke-miterlimit="10"/>
<path d="M31.7158 19.7246H16.5H1.28418" stroke="#002A46" stroke-miterlimit="10"/>
<path d="M31.7158 21.0507H16.5H1.28418" stroke="#002A46" stroke-miterlimit="10"/>
</svg>
