<svg width="25" height="20" viewBox="0 0 25 20" fill="none" xmlns="http://www.w3.org/2000/svg">
<g clip-path="url(#clip0_1481_1156)">
<path d="M6.61395 7.84061C17.2629 7.84061 16.7637 7.84061 17.0965 7.84061C17.4293 7.88254 17.7204 7.58904 17.6788 7.25361C17.3045 4.3186 14.8086 2.13831 11.8968 2.13831C8.985 2.13831 6.48916 4.3186 6.11478 7.25361C6.07318 7.58904 6.32277 7.84061 6.61395 7.84061ZM11.8968 3.22845C14.1015 3.22845 15.9734 4.73789 16.5141 6.83432H7.23791C7.82027 4.73789 9.69215 3.22845 11.8968 3.22845Z" fill="#002A46"/>
<path d="M5.74039 14.1719C4.57566 14.1719 3.66052 15.0943 3.66052 16.2683C3.66052 17.4423 4.57566 18.3647 5.74039 18.3647C6.90511 18.3647 7.82026 17.4423 7.82026 16.2683C7.82026 15.0943 6.86352 14.1719 5.74039 14.1719ZM5.74039 17.3165C5.15803 17.3165 4.70046 16.8553 4.70046 16.2683C4.70046 15.6813 5.15803 15.2201 5.74039 15.2201C6.32275 15.2201 6.78032 15.6813 6.78032 16.2683C6.78032 16.8553 6.28115 17.3165 5.74039 17.3165Z" fill="#002A46"/>
<path d="M22.8369 16.8134H24.4176C24.7088 16.8134 24.9584 16.5618 24.9584 16.2683V12.7463C24.9584 9.85325 22.8785 7.37945 20.0915 6.91824C19.3844 2.97694 15.9318 0 11.8968 0C7.8619 0 4.45092 2.89308 3.74376 6.83438H2.12146C0.956739 6.83438 0.0415973 7.79874 0.0415973 8.93082V16.2683C0.0415973 16.5618 0.291181 16.8134 0.582363 16.8134H2.16306C2.28785 17.6101 2.66223 18.3648 3.203 18.9099H0.540765C0.249584 18.9099 0 19.1614 0 19.4549C0 19.7484 0.249584 20 0.540765 20H24.4592C24.7504 20 25 19.7484 25 19.4549C25 19.1614 24.7504 18.9099 24.4592 18.9099H21.797C22.3378 18.3229 22.7121 17.6101 22.8369 16.8134ZM1.03993 8.93082C1.03993 8.34382 1.4975 7.8826 2.07987 7.8826H4.15973C4.40932 7.8826 4.6589 7.67296 4.6589 7.42138C5.15807 3.81551 8.23627 1.04822 11.8552 1.04822C15.4742 1.04822 18.594 3.77359 19.0932 7.42138C19.1348 7.67296 19.3012 7.84067 19.5507 7.8826C22.005 8.13417 23.9185 10.2306 23.9185 12.7463V15.7233H22.8369C22.5458 13.5849 20.4659 12.1593 18.3444 12.7044C16.8885 13.0818 15.807 14.2977 15.599 15.7233H9.3178C9.19301 14.8847 8.77704 14.0461 8.06988 13.4591C6.90516 12.4528 5.28286 12.327 3.99334 13.0398C3.03661 13.5849 2.28785 14.5493 2.12146 15.7233H1.03993V8.93082ZM3.1198 16.2683C3.1198 14.8428 4.28453 13.6268 5.74043 13.6268C7.19634 13.6268 8.36107 14.8008 8.36107 16.2683C8.36107 17.7358 7.19634 18.9099 5.74043 18.9099C4.28453 18.9099 3.1198 17.6939 3.1198 16.2683ZM8.27787 18.9099C8.81864 18.3648 9.23461 17.6101 9.3178 16.8134H15.6406C15.7654 17.6101 16.1398 18.3648 16.6805 18.9099H8.27787ZM16.6389 16.2683C16.6389 14.8428 17.8037 13.6268 19.2596 13.6268C20.7155 13.6268 21.8802 14.8008 21.8802 16.2683C21.8802 17.7358 20.7155 18.9099 19.2596 18.9099C17.8037 18.9099 16.6389 17.6939 16.6389 16.2683Z" fill="#002A46"/>
<path d="M19.2596 14.1719C18.0948 14.1719 17.1797 15.0943 17.1797 16.2683C17.1797 17.4423 18.0948 18.3647 19.2596 18.3647C20.4243 18.3647 21.3394 17.4423 21.3394 16.2683C21.3394 15.0943 20.3827 14.1719 19.2596 14.1719ZM19.2596 17.3165C18.6772 17.3165 18.2196 16.8553 18.2196 16.2683C18.2196 15.6813 18.6772 15.2201 19.2596 15.2201C19.8419 15.2201 20.2995 15.6813 20.2995 16.2683C20.2995 16.8553 19.8003 17.3165 19.2596 17.3165Z" fill="#002A46"/>
<path d="M6.23962 11.0273H17.6789C17.9701 11.0273 18.2197 10.7757 18.2197 10.4822C18.2197 10.1887 17.9701 9.93713 17.6789 9.93713H6.23962C5.94844 9.93713 5.69885 10.1887 5.69885 10.4822C5.69885 10.7757 5.94844 11.0273 6.23962 11.0273Z" fill="#002A46"/>
</g>
<defs>
<clipPath id="clip0_1481_1156">
<rect width="25" height="20" fill="white"/>
</clipPath>
</defs>
</svg>
