<svg width="245" height="245" viewBox="0 0 245 245" fill="none" xmlns="http://www.w3.org/2000/svg">
<g clip-path="url(#clip0_1481_664)">
<g clip-path="url(#clip1_1481_664)">
<mask id="mask0_1481_664" style="mask-type:luminance" maskUnits="userSpaceOnUse" x="0" y="0" width="245" height="245">
<path d="M245 0H0V245H245V0Z" fill="white"/>
</mask>
<g mask="url(#mask0_1481_664)">
<mask id="mask1_1481_664" style="mask-type:luminance" maskUnits="userSpaceOnUse" x="0" y="0" width="245" height="245">
<path d="M245 0H0V245H245V0Z" fill="white"/>
</mask>
<g mask="url(#mask1_1481_664)">
<path d="M122.5 25.1626C94.3574 25.1626 71.4607 48.0594 71.4607 76.2019C71.4607 81.9618 72.4223 87.5027 74.1931 92.6723C74.2121 92.758 74.2407 92.8437 74.2788 92.9198C75.4879 96.4043 77.0683 99.727 78.9724 102.831C79.0295 102.973 79.1152 103.097 79.2104 103.211C79.2294 103.24 79.2484 103.278 79.277 103.307C79.3341 103.45 79.4198 103.573 79.515 103.688C82.4759 108.305 86.1603 112.408 90.3969 115.845C90.5016 115.959 90.6254 116.064 90.7682 116.14C99.489 123.081 110.523 127.232 122.5 127.232C138.133 127.232 152.147 120.167 161.515 109.067C161.629 108.962 161.734 108.848 161.81 108.714C163.257 106.963 164.59 105.125 165.799 103.192C165.894 103.088 165.97 102.964 166.028 102.821C167.932 99.727 169.512 96.4043 170.721 92.9198C170.759 92.8342 170.797 92.7485 170.816 92.6533C172.587 87.4837 173.549 81.9427 173.549 76.1924C173.549 48.0498 150.652 25.1531 122.509 25.1531M80.8003 100.603C79.6102 98.5655 78.5535 96.4424 77.668 94.2337C77.5157 93.8433 77.7633 93.4149 78.1822 93.3483C85.7414 92.1773 93.0246 89.5686 99.6127 85.6843C99.6413 85.6748 99.6699 85.6557 99.6889 85.6462C99.6889 85.6462 99.708 85.6272 99.7175 85.6176C101.336 84.6561 102.916 83.6279 104.44 82.514C110.609 78.0203 115.883 72.3937 119.958 65.9864C120.31 65.4437 121.158 65.6913 121.158 66.3387V75.8591C121.158 75.9734 121.129 76.0781 121.081 76.1733C113.16 90.9206 98.08 100.308 81.4001 100.917C81.1621 100.917 80.9336 100.803 80.8098 100.593M122.633 52.791C121.824 52.7149 121.148 53.3432 121.148 54.1429V58.0749C121.148 58.1701 121.129 58.2748 121.081 58.3605C116.95 67.0527 110.647 74.65 102.84 80.3338C101.888 81.0192 100.927 81.6762 99.946 82.3045C99.6318 82.5044 99.2129 82.3997 99.032 82.076C96.5186 77.6014 95.3285 72.4984 95.6427 67.2907C96.4615 53.4289 107.896 42.3851 121.767 42.0043C136.943 41.5949 149.424 53.8288 149.424 68.9092C149.424 73.5552 148.243 78.0679 145.987 82.076C145.806 82.3997 145.387 82.5044 145.073 82.3045C144.083 81.6762 143.121 81.0192 142.169 80.3338C134.353 74.65 128.06 67.0622 123.928 58.3605C123.89 58.2748 123.861 58.1701 123.861 58.0749V54.1905C123.861 53.486 123.347 52.8482 122.643 52.7815M121.148 83.4375V100.46C121.148 100.879 120.748 101.193 120.339 101.088C114.56 99.6984 109.362 99.1653 103.126 99.1938H103.097C102.412 99.1938 102.183 98.2799 102.793 97.9562C109.533 94.4146 115.436 89.3306 119.977 83.0376C120.348 82.5235 121.158 82.7901 121.158 83.4279M92.2344 113.741C92.1201 113.722 92.0154 113.674 91.9202 113.598C88.7404 110.99 85.9033 107.991 83.466 104.668C83.1709 104.268 83.4089 103.707 83.8944 103.63C88.2643 102.983 96.3853 101.926 103.126 101.898C108.61 101.869 113.265 102.298 118.292 103.392C120.786 103.935 124.433 105.039 127.003 105.858C127.67 106.068 127.584 107.039 126.889 107.124C120.986 107.848 116.616 109.514 112.77 110.98C110.228 111.951 108.019 112.789 105.725 113.246C98.7464 114.607 93.7672 113.998 92.2249 113.732M155.469 111.513C146.825 119.587 135.229 124.537 122.5 124.537C113.665 124.537 105.382 122.157 98.2513 117.997C97.6896 117.673 97.8991 116.807 98.556 116.778C100.46 116.702 103.335 116.493 106.268 115.912C108.79 115.417 111.199 114.503 113.751 113.522C120.053 111.113 127.831 108.153 141.988 110.133C142.512 110.219 143.036 110.295 143.559 110.371C143.683 110.39 143.807 110.409 143.931 110.428C143.969 110.428 143.997 110.428 144.035 110.428C145.701 110.628 147.425 110.742 149.224 110.742C151.023 110.742 152.927 110.628 154.936 110.39C155.555 110.314 155.926 111.085 155.46 111.513M161.629 104.535C161.106 105.249 160.572 105.953 160.011 106.639C159.915 106.753 159.782 106.839 159.63 106.867C153.632 108.124 148.834 108.295 144.378 107.753C144.378 107.753 144.378 107.753 144.369 107.753C143.578 107.619 142.817 107.515 142.055 107.41C138.199 106.725 134.505 105.534 130.373 104.106C128.231 103.364 126.232 102.716 124.318 102.155C124.042 102.069 123.852 101.821 123.852 101.526V83.4375C123.852 82.8091 124.661 82.5425 125.032 83.0566C133.487 94.7763 146.653 102.278 161.163 103.497C161.667 103.535 161.934 104.116 161.629 104.535ZM167.341 94.2337C166.447 96.4424 165.399 98.575 164.209 100.603C164.085 100.812 163.857 100.936 163.619 100.927C146.949 100.317 131.868 90.9301 123.938 76.1924C123.89 76.0972 123.861 75.9924 123.861 75.8782V66.3577C123.861 65.7008 124.709 65.4533 125.061 66.0055C129.136 72.4127 134.401 78.0393 140.57 82.5235C142.103 83.6374 143.693 84.6751 145.321 85.6367C145.33 85.6367 145.349 85.6557 145.359 85.6652C151.947 89.5591 159.249 92.1773 166.818 93.3483C167.237 93.4149 167.484 93.8433 167.332 94.2337M168.722 90.3303C168.627 90.6349 168.322 90.8253 167.998 90.7873C161.182 89.8352 154.584 87.6455 148.548 84.3705C148.224 84.1991 148.12 83.7897 148.3 83.4755C150.804 79.0485 152.118 74.0598 152.118 68.9282C152.118 52.5911 138.828 39.31 122.5 39.31C106.172 39.31 92.8818 52.6006 92.8818 68.9282C92.8818 74.0598 94.1956 79.0485 96.6995 83.4755C96.8804 83.7897 96.7756 84.1991 96.452 84.38C90.416 87.655 83.8183 89.8447 77.0016 90.7968C76.6874 90.8444 76.3828 90.654 76.2876 90.3398C74.9166 85.8652 74.1836 81.124 74.1836 76.2114C74.1836 49.4684 96.014 27.7236 122.795 27.8759C148.843 28.0187 170.245 49.0495 170.835 75.088C170.959 80.4004 170.217 85.5224 168.741 90.3398" fill="#002A46"/>
<path d="M155.469 111.513C146.825 119.587 135.229 124.537 122.5 124.537C113.665 124.537 105.382 122.157 98.2514 117.997C97.6897 117.673 97.8991 116.807 98.556 116.778C100.46 116.702 103.335 116.493 106.268 115.912C108.791 115.417 111.199 114.503 113.751 113.522C120.053 111.113 127.832 108.153 141.988 110.133C142.512 110.219 143.036 110.295 143.559 110.371C143.683 110.39 143.807 110.409 143.931 110.428C143.969 110.428 143.997 110.428 144.035 110.428C145.701 110.628 147.425 110.742 149.224 110.742C151.023 110.742 152.928 110.628 154.936 110.39C155.555 110.314 155.926 111.085 155.46 111.513" fill="#D2E8E6"/>
<path d="M126.898 107.134C120.996 107.858 116.626 109.524 112.78 110.99C110.238 111.961 108.029 112.799 105.734 113.256C98.7559 114.617 93.7767 114.008 92.2344 113.741C92.1202 113.722 92.0154 113.675 91.9202 113.598C88.7404 110.99 85.9033 107.991 83.4661 104.668C83.1709 104.268 83.4089 103.707 83.8945 103.63C88.2644 102.983 96.3853 101.926 103.126 101.898C108.61 101.869 113.265 102.298 118.292 103.392C120.786 103.935 124.433 105.039 127.003 105.858C127.67 106.068 127.584 107.039 126.889 107.124" fill="#D2E8E6"/>
<path d="M161.629 104.535C161.105 105.249 160.572 105.953 160.011 106.639C159.915 106.753 159.782 106.839 159.63 106.867C153.632 108.124 148.834 108.295 144.378 107.753C144.378 107.753 144.378 107.753 144.368 107.753C143.578 107.619 142.817 107.515 142.055 107.41C138.199 106.724 134.505 105.534 130.373 104.106C128.231 103.364 126.232 102.716 124.318 102.155C124.042 102.069 123.852 101.821 123.852 101.526V83.4374C123.852 82.809 124.661 82.5425 125.032 83.0566C133.487 94.7763 146.653 102.278 161.163 103.497C161.667 103.535 161.934 104.116 161.629 104.535Z" fill="#E9DFCA"/>
<path d="M121.148 83.4374V100.46C121.148 100.879 120.748 101.193 120.339 101.088C114.56 99.6984 109.362 99.1653 103.126 99.1938H103.097C102.412 99.1938 102.183 98.2798 102.793 97.9562C109.533 94.4145 115.436 89.3306 119.977 83.0376C120.348 82.5235 121.158 82.79 121.158 83.4279" fill="#D7C36C"/>
<path d="M121.148 66.3481V75.8686C121.148 75.9829 121.12 76.0876 121.072 76.1828C113.151 90.93 98.0704 100.317 81.3906 100.927C81.1525 100.927 80.9241 100.812 80.8003 100.603C79.6102 98.5654 78.5535 96.4424 77.668 94.2336C77.5157 93.8433 77.7633 93.4149 78.1822 93.3482C85.7414 92.1772 93.0246 89.5686 99.6127 85.6842C99.6413 85.6747 99.6699 85.6557 99.6889 85.6461C99.6889 85.6461 99.708 85.6271 99.7175 85.6176C101.336 84.656 102.916 83.6278 104.44 82.5139C110.609 78.0202 115.883 72.3936 119.958 65.9863C120.31 65.4437 121.158 65.6912 121.158 66.3386" fill="#D7C36C"/>
<path d="M167.341 94.2336C166.446 96.4424 165.399 98.575 164.209 100.603C164.085 100.812 163.857 100.936 163.619 100.927C146.948 100.317 131.868 90.93 123.937 76.1923C123.89 76.0971 123.861 75.9924 123.861 75.8781V66.3577C123.861 65.7007 124.709 65.4532 125.061 66.0054C129.136 72.4127 134.4 78.0393 140.57 82.5234C142.103 83.6373 143.692 84.6751 145.32 85.6366C145.33 85.6366 145.349 85.6557 145.359 85.6652C151.956 89.5591 159.249 92.1772 166.818 93.3482C167.237 93.4149 167.484 93.8433 167.332 94.2336" fill="#E9DFCA"/>
<path d="M168.722 90.3303C168.627 90.6349 168.322 90.8253 167.998 90.7872C161.182 89.8352 154.584 87.6455 148.548 84.3704C148.224 84.1991 148.12 83.7897 148.301 83.4755C150.804 79.0485 152.118 74.0598 152.118 68.9282C152.118 52.5911 138.828 39.31 122.5 39.31C106.172 39.31 92.8818 52.6006 92.8818 68.9282C92.8818 74.0598 94.1956 79.0485 96.6995 83.4755C96.8804 83.7897 96.7757 84.1991 96.452 84.38C90.416 87.655 83.8183 89.8447 77.0017 90.7968C76.6875 90.8444 76.3828 90.654 76.2876 90.3398C74.9167 85.8652 74.1836 81.124 74.1836 76.2114C74.1836 49.4684 96.014 27.7236 122.795 27.8759C148.843 28.0187 170.245 49.0495 170.836 75.088C170.959 80.4004 170.217 85.5224 168.741 90.3398" fill="#D2E8E6"/>
<path d="M149.414 68.9092C149.414 73.5552 148.234 78.0679 145.977 82.0761C145.797 82.3998 145.378 82.5045 145.063 82.3046C144.073 81.6762 143.112 81.0193 142.16 80.3338C134.343 74.6501 128.05 67.0623 123.919 58.3605C123.88 58.2749 123.852 58.1701 123.852 58.0749V54.1906C123.852 53.4861 123.338 52.8482 122.633 52.7815C121.824 52.7054 121.148 53.3337 121.148 54.1335V58.0654C121.148 58.1606 121.129 58.2653 121.081 58.351C116.95 67.0432 110.647 74.6406 102.84 80.3243C101.888 81.0098 100.927 81.6667 99.9459 82.295C99.6318 82.495 99.2129 82.3902 99.032 82.0665C96.5186 77.5919 95.3285 72.4889 95.6427 67.2812C96.4614 53.4194 107.896 42.3757 121.767 41.9948C136.943 41.5855 149.424 53.8193 149.424 68.8997" fill="#E0793F"/>
<path d="M24.0106 159.858V164.733C21.3354 162.191 18.0889 160.963 14.0427 160.868V190.581H9.95842V160.868C5.92174 160.953 2.67525 162.181 -0.00952148 164.733V159.858H24.0011H24.0106Z" fill="#002A46"/>
<path d="M27.6472 190.581V159.858H31.7315V174.034H45.6504V159.858H49.7252V190.581H45.6504V175.044H31.7315V190.581H27.6472Z" fill="#002A46"/>
<path d="M58.4654 160.868V174.034H68.8713V175.044H58.4654V189.572H61.8928C66.196 189.572 69.5758 188.391 72.3843 185.706V190.581H54.3906V159.858H72.3462V164.733C69.5377 162.058 66.1579 160.868 61.8547 160.868H58.4749H58.4654Z" fill="#002A46"/>
<path d="M105.649 168.417L98.7082 190.448H96.8708L86.9885 159.858H91.3394L99.3651 184.878L107.315 159.677L114.903 184.878L123.376 159.554H124.48L114.16 190.314H112.275L105.649 168.417Z" fill="#002A46"/>
<path d="M139.97 159.639C148.967 159.639 155.336 165.961 155.336 175.396C155.336 184.831 148.976 191.067 139.97 191.067C130.963 191.067 124.651 184.831 124.651 175.396C124.651 165.961 130.973 159.639 139.97 159.639ZM139.97 160.649C133.915 160.649 128.736 166.618 128.736 175.348C128.736 184.078 133.915 190.048 139.97 190.048C146.025 190.048 151.252 184.078 151.252 175.348C151.252 166.618 146.025 160.649 139.97 160.649Z" fill="#002A46"/>
<path d="M173.282 159.639C182.279 159.639 188.648 165.961 188.648 175.396C188.648 184.831 182.279 191.067 173.282 191.067C164.285 191.067 157.964 184.831 157.964 175.396C157.964 165.961 164.285 159.639 173.282 159.639ZM173.282 160.649C167.227 160.649 162.048 166.618 162.048 175.348C162.048 184.078 167.227 190.048 173.282 190.048C179.337 190.048 184.564 184.078 184.564 175.348C184.564 166.618 179.337 160.649 173.282 160.649Z" fill="#002A46"/>
<path d="M202.51 159.858C211.945 159.858 219.104 165.961 219.104 175.396C219.104 184.831 213.706 190.581 204.271 190.581H192.285V159.858H202.51ZM196.369 189.572H204.271C210.764 189.572 215.029 183.602 215.029 174.872C215.029 166.142 209.012 160.868 202.519 160.868H196.379V189.572H196.369Z" fill="#002A46"/>
<path d="M223.227 190.533L221.513 178.109C221.513 177.976 221.998 177.757 222.037 178.062C223.788 190.524 229.148 189.915 233.185 189.915C238.012 189.915 241.477 187.106 241.477 183.641C241.477 175.034 221.856 177.367 221.856 167.579C221.856 161.344 226.987 159.373 231.072 159.373C234.499 159.373 237.917 159.858 241.296 159.858L242.706 171.359C242.706 171.53 242.182 171.445 242.182 171.311C240.468 159.858 234.28 160.382 231.252 160.382C227.92 160.382 225.369 161.915 225.369 165.39C225.369 175.044 244.99 170.436 244.99 180.756C244.99 187.601 238.621 190.943 233.356 190.943C230.11 190.943 228.044 190.543 224.626 190.543H223.217L223.227 190.533Z" fill="#002A46"/>
<path d="M26.0291 213.668C26.0291 212.221 26.924 211.098 30.0657 210.279C30.6941 210.107 31.4272 209.965 32.2459 209.812V208.86C32.2459 207.032 31.1511 206.185 29.942 206.185C28.6186 206.185 27.857 207.223 27.857 208.603C27.857 209.089 27.4476 209.327 27.0573 209.327C26.6669 209.327 26.2385 209.089 26.2385 208.584C26.2385 206.909 29.1613 205.795 30.5037 205.795C32.2364 205.795 33.9882 206.318 33.9882 209.032V214.43C33.9882 214.953 34.1595 215.325 34.588 215.325C34.9021 215.325 35.1878 215.125 35.521 214.696C35.5781 214.601 35.7971 214.792 35.759 214.868C35.2734 215.534 34.4547 216.058 33.674 216.058C32.4459 216.058 32.2745 215.02 32.2745 214.496V213.135H32.2364C31.827 214.439 30.6941 216.039 28.9042 216.039C27.3429 216.039 26.0386 215.125 26.0386 213.678M32.2459 212.44V210.098C31.4081 210.231 30.7226 210.393 30.1609 210.564C27.8189 211.326 27.6856 212.459 27.6856 213.211C27.6856 214.325 28.5805 215.058 29.5992 215.058C30.8845 215.058 31.7604 214.02 32.2459 212.449" fill="#002A46"/>
<path d="M37.6058 213.468V206.585H36.1016L36.1777 206.099C37.7391 206.099 38.7483 204.519 39.0815 202.767C39.1196 202.653 39.3576 202.691 39.3576 202.767V206.023H41.9471L41.6901 206.585H39.348V213.373C39.348 214.658 39.8526 215.182 40.5571 215.182C41.1189 215.182 41.5854 214.868 42.1566 214.011C42.2137 213.935 42.4327 214.106 42.3946 214.182C41.6139 215.41 40.9094 216.058 39.9383 216.058C38.6721 216.058 37.6153 215.334 37.6153 213.468" fill="#002A46"/>
<path d="M54.3714 202.729C58.1891 202.729 60.8834 205.404 60.8834 209.413C60.8834 213.421 58.1891 216.058 54.3714 216.058C50.5537 216.058 47.8784 213.411 47.8784 209.413C47.8784 205.414 50.5537 202.729 54.3714 202.729ZM54.3714 203.158C51.8009 203.158 49.6111 205.69 49.6111 209.393C49.6111 213.097 51.8104 215.629 54.3714 215.629C56.9324 215.629 59.1507 213.097 59.1507 209.393C59.1507 205.69 56.9324 203.158 54.3714 203.158Z" fill="#002A46"/>
<path d="M61.9973 211.06C61.9973 207.937 64.1775 205.795 67.0432 205.795C68.7569 205.795 70.2992 206.985 70.2992 208.099C70.2992 208.565 69.966 208.822 69.5566 208.822C69.1472 208.822 68.833 208.584 68.833 208.08C68.833 207.07 68.3475 206.071 66.9765 206.071C65.1676 206.071 63.6253 207.746 63.6253 210.783C63.6253 212.887 64.8915 214.991 67.1955 214.991C68.7949 214.991 69.8041 213.839 70.5848 212.573C70.6419 212.478 70.8038 212.649 70.7942 212.707C69.8231 214.658 68.6521 216.039 66.5671 216.039C64.1299 216.039 62.0068 213.973 62.0068 211.069" fill="#002A46"/>
<path d="M71.8984 211.06C71.8984 207.937 74.0786 205.795 76.9443 205.795C78.658 205.795 80.2003 206.985 80.2003 208.099C80.2003 208.565 79.8671 208.822 79.4577 208.822C79.0483 208.822 78.7341 208.584 78.7341 208.08C78.7341 207.07 78.2486 206.071 76.8777 206.071C75.0688 206.071 73.5264 207.746 73.5264 210.783C73.5264 212.887 74.7927 214.991 77.0966 214.991C78.6961 214.991 79.7052 213.839 80.4859 212.573C80.543 212.478 80.7049 212.649 80.6954 212.707C79.7243 214.658 78.5533 216.039 76.4683 216.039C74.031 216.039 71.908 213.973 71.908 211.069" fill="#002A46"/>
<path d="M81.7998 210.936C81.7998 207.937 83.7896 205.804 86.7695 205.804C89.7494 205.804 91.7773 207.946 91.7773 210.936C91.7773 213.925 89.7684 216.058 86.7695 216.058C83.7705 216.058 81.7998 213.935 81.7998 210.936ZM90.0445 210.917C90.0445 208.165 88.8354 206.118 86.7695 206.118C84.7036 206.118 83.5325 208.165 83.5325 210.936C83.5325 213.706 84.7226 215.734 86.7695 215.734C88.8164 215.734 90.0445 213.687 90.0445 210.917Z" fill="#002A46"/>
<path d="M92.8914 211.174C92.8914 207.861 95.1572 205.795 97.8801 205.795C99.2986 205.795 100.117 206.318 100.489 206.594L101.346 205.995H101.736V218.143C101.736 218.666 101.888 219.038 102.317 219.038C102.631 219.038 102.935 218.828 103.25 218.409C103.326 218.314 103.526 218.505 103.488 218.581C103.002 219.247 102.183 219.771 101.403 219.771C100.175 219.771 100.003 218.733 100.003 218.209V214.563C99.4224 215.344 98.4037 216.048 97.0042 216.048C94.9192 216.048 92.8914 214.506 92.8914 211.174ZM97.6706 215.268C98.8036 215.268 99.4414 214.915 99.9936 214.058L100.013 207.213C99.5652 206.652 98.9369 206.08 97.9848 206.08C96.4806 206.08 94.6146 207.718 94.6146 210.898C94.6146 213.63 95.8427 215.268 97.6706 215.268Z" fill="#002A46"/>
<path d="M102.697 206.204C103.478 206.052 104.573 205.928 105.373 205.776C105.563 205.738 105.649 205.757 105.649 205.909V213.002C105.649 214.173 106.486 215.163 107.562 215.163C108.143 215.163 108.809 214.868 109.419 214.135L110.18 213.24V208.27C110.18 207.175 110.066 206.414 108.971 206.461C108.876 206.461 108.876 206.223 108.952 206.204C109.733 206.052 110.828 205.928 111.627 205.776C111.818 205.738 111.904 205.757 111.904 205.909V214.392C111.904 214.915 112.075 215.287 112.503 215.287C112.818 215.287 113.103 215.087 113.436 214.658C113.493 214.563 113.712 214.753 113.674 214.83C113.189 215.496 112.351 216.02 111.57 216.02C110.342 216.02 110.171 214.982 110.171 214.458V213.697L109.647 214.325C108.676 215.496 107.524 216.039 106.525 216.039C105.077 216.039 103.897 214.944 103.897 213.002V208.28C103.897 207.185 103.783 206.423 102.688 206.471C102.593 206.471 102.593 206.233 102.669 206.214" fill="#002A46"/>
<path d="M114.331 213.668C114.331 212.221 115.226 211.098 118.368 210.279C118.996 210.107 119.729 209.965 120.548 209.812V208.86C120.548 207.032 119.453 206.185 118.244 206.185C116.921 206.185 116.159 207.223 116.159 208.603C116.159 209.089 115.75 209.327 115.36 209.327C114.969 209.327 114.541 209.089 114.541 208.584C114.541 206.909 117.464 205.795 118.806 205.795C120.539 205.795 122.29 206.318 122.29 209.032V214.43C122.29 214.953 122.462 215.325 122.89 215.325C123.204 215.325 123.49 215.125 123.823 214.696C123.88 214.601 124.099 214.792 124.061 214.868C123.576 215.534 122.757 216.058 121.976 216.058C120.748 216.058 120.577 215.02 120.577 214.496V213.135H120.539C120.129 214.439 118.996 216.039 117.206 216.039C115.645 216.039 114.341 215.125 114.341 213.678M120.548 212.44V210.098C119.71 210.231 119.025 210.393 118.463 210.564C116.121 211.326 115.988 212.459 115.988 213.211C115.988 214.325 116.883 215.058 117.901 215.058C119.187 215.058 120.063 214.02 120.548 212.449" fill="#002A46"/>
<path d="M124.319 206.966C124.804 206.299 125.642 205.776 126.423 205.776C127.651 205.776 127.822 206.813 127.822 207.337V208.156L128.346 207.527C129.317 206.356 130.469 205.814 131.468 205.814C132.916 205.814 134.096 206.909 134.096 208.851V214.401C134.096 214.925 134.267 215.296 134.696 215.296C135.01 215.296 135.296 215.096 135.629 214.668C135.686 214.573 135.905 214.763 135.867 214.839C135.381 215.506 134.544 216.029 133.763 216.029C132.535 216.029 132.363 214.991 132.363 214.468V208.87C132.363 207.699 131.526 206.709 130.45 206.709C129.869 206.709 129.203 207.004 128.593 207.737L127.832 208.632V215.867H126.099V207.423C126.099 206.899 125.928 206.528 125.499 206.528C125.185 206.528 124.899 206.728 124.566 207.156C124.509 207.251 124.29 207.061 124.328 206.985" fill="#002A46"/>
<path d="M147.767 202.729C151.585 202.729 154.279 205.404 154.279 209.413C154.279 213.421 151.585 216.058 147.767 216.058C143.95 216.058 141.274 213.411 141.274 209.413C141.274 205.414 143.95 202.729 147.767 202.729ZM147.767 203.158C145.197 203.158 143.007 205.69 143.007 209.393C143.007 213.097 145.206 215.629 147.767 215.629C150.328 215.629 152.547 213.097 152.547 209.393C152.547 205.69 150.328 203.158 147.767 203.158Z" fill="#002A46"/>
<path d="M163.847 206.042L159.658 215.848H158.954L154.841 206.042H156.726L160.068 214.058L163.438 206.042H163.847Z" fill="#002A46"/>
<path d="M169.207 205.795C171.588 205.795 172.835 207.432 172.835 208.775C172.835 209.708 172.206 210.469 170.883 210.469H165.713V210.821C165.713 212.678 166.865 214.991 169.493 214.991C171.131 214.991 172.14 213.839 172.92 212.573C172.978 212.478 173.139 212.649 173.12 212.707C172.149 214.658 170.978 216.039 168.893 216.039C166.047 216.039 163.981 213.878 163.981 211.05C163.981 208.013 166.218 205.804 169.207 205.804M170.007 210.193C170.94 210.193 171.473 209.298 171.473 208.346C171.473 207.251 170.769 206.08 169.131 206.08C167.399 206.08 166.009 207.994 165.704 210.193H170.007Z" fill="#002A46"/>
<path d="M174.958 215.848V208.251C174.958 207.156 174.844 206.394 173.749 206.442C173.654 206.442 173.654 206.204 173.73 206.185C174.51 206.033 175.605 205.909 176.405 205.757C176.595 205.718 176.681 205.737 176.681 205.89V207.88L177.205 207.356C178.281 206.28 178.528 205.776 179.547 205.776C179.975 205.776 180.575 205.966 180.87 206.261C181.413 206.804 180.832 207.623 180.223 207.623C180.051 207.623 179.889 207.565 179.737 207.413C179.385 207.061 179.014 206.69 178.623 206.69C178.433 206.69 178.252 206.766 178.062 206.947L176.681 208.308V215.848H174.948H174.958Z" fill="#002A46"/>
<path d="M184.116 214.392C184.116 214.915 184.288 215.287 184.716 215.287C185.03 215.287 185.316 215.077 185.649 214.658C185.706 214.563 185.925 214.753 185.887 214.83C185.402 215.496 184.564 216.02 183.783 216.02C182.555 216.02 182.384 214.982 182.384 214.458V204.405C182.384 203.31 182.269 202.548 181.175 202.596C181.079 202.596 181.079 202.358 181.156 202.339C181.936 202.186 183.031 202.063 183.831 201.91C184.021 201.872 184.107 201.891 184.107 202.044V214.401L184.116 214.392Z" fill="#002A46"/>
<path d="M186.706 210.936C186.706 207.937 188.696 205.804 191.676 205.804C194.656 205.804 196.684 207.946 196.684 210.936C196.684 213.925 194.675 216.058 191.676 216.058C188.677 216.058 186.706 213.935 186.706 210.936ZM194.951 210.917C194.951 208.165 193.742 206.118 191.676 206.118C189.61 206.118 188.439 208.165 188.439 210.936C188.439 213.706 189.629 215.734 191.676 215.734C193.723 215.734 194.951 213.687 194.951 210.917Z" fill="#002A46"/>
<path d="M197.797 210.936C197.797 207.937 199.787 205.804 202.767 205.804C205.747 205.804 207.775 207.946 207.775 210.936C207.775 213.925 205.766 216.058 202.767 216.058C199.768 216.058 197.797 213.935 197.797 210.936ZM206.033 210.917C206.033 208.165 204.823 206.118 202.758 206.118C200.692 206.118 199.521 208.165 199.521 210.936C199.521 213.706 200.711 215.734 202.758 215.734C204.804 215.734 206.033 213.687 206.033 210.917Z" fill="#002A46"/>
<path d="M209.612 215.848V204.405C209.612 203.31 209.498 202.548 208.403 202.596C208.308 202.596 208.308 202.358 208.384 202.339C209.165 202.186 210.26 202.063 211.06 201.91C211.25 201.872 211.336 201.891 211.336 202.044V210.774L216.324 206.033H216.924L213.44 209.308C213.811 209.155 214.201 209.108 214.554 209.108C216.001 209.108 217.181 210.203 217.181 212.145V214.411C217.181 214.934 217.353 215.306 217.781 215.306C218.095 215.306 218.4 215.106 218.714 214.677C218.79 214.582 218.99 214.772 218.952 214.849C218.466 215.515 217.629 216.039 216.848 216.039C215.62 216.039 215.448 215.001 215.448 214.477V211.964C215.448 210.517 214.725 209.66 213.735 209.66C213.478 209.66 213.173 209.736 212.878 209.86C212.354 210.364 211.859 210.831 211.336 211.326V215.867H209.603L209.612 215.848Z" fill="#002A46"/>
</g>
</g>
</g>
</g>
<defs>
<clipPath id="clip0_1481_664">
<rect width="245" height="245" fill="white"/>
</clipPath>
<clipPath id="clip1_1481_664">
<rect width="245" height="245" fill="white"/>
</clipPath>
</defs>
</svg>
