<svg width="322" height="215" viewBox="0 0 322 215" fill="none" xmlns="http://www.w3.org/2000/svg">
<path d="M74.6568 214.566H72.0341L62.1802 200.995V212.449C62.1802 213.342 62.5876 213.571 62.9441 213.673L63.1732 213.75V214.592H60.0413V213.75L60.2705 213.673C60.627 213.571 61.0344 213.342 61.0344 212.449V200.255C61.0344 199.566 60.7797 199.209 60.245 199.031L60.0159 198.954V198.138H62.9441L72.4925 211.301V200.23C72.4925 199.541 72.2633 199.184 71.7286 199.031L71.4994 198.954V198.112H74.6313V198.954L74.4022 199.031C73.8674 199.184 73.6383 199.541 73.6383 200.23V212.423C73.6383 213.316 74.0457 213.546 74.4022 213.648L74.6313 213.724V214.566H74.6568Z" fill="#A57B44"/>
<path d="M84.8164 214.566C81.5317 214.566 78.8582 211.888 78.8582 208.597C78.8582 205.306 81.5317 202.628 84.8164 202.628C88.101 202.628 90.7746 205.306 90.7746 208.597C90.7746 211.888 88.101 214.566 84.8164 214.566ZM84.8164 203.648C83.1104 203.648 81.2007 205.765 81.2007 208.597C81.2007 211.429 83.1104 213.546 84.8164 213.546C86.5224 213.546 88.4066 211.429 88.4066 208.597C88.4066 205.765 86.4969 203.648 84.8164 203.648Z" fill="#A57B44"/>
<path d="M99.177 214.566H94.9502V213.724L95.1794 213.648C95.5358 213.546 95.9687 213.316 95.9687 212.423V205C95.9687 204.719 95.8414 204.719 95.8159 204.719C95.765 204.719 95.6377 204.745 95.4594 204.872L94.9502 205.204V204.158L97.4964 202.628H98.1839V204.668C99.0751 203.622 100.679 202.628 102.462 202.628H102.793V204.439H102.462C100.45 204.439 98.9987 205.23 98.1839 206.811V212.423C98.1839 213.316 98.5913 213.546 98.9478 213.648L99.177 213.724V214.566Z" fill="#A57B44"/>
<path d="M111.043 214.566C109.591 214.566 108.114 213.725 108.114 211.888V203.674H107.096V202.653H107.503C108.675 202.602 109.311 201.658 109.413 200.714V200.434H110.33V202.679H112.112V203.699H110.33V211.913C110.33 213.469 110.788 213.699 111.221 213.699C111.705 213.699 112.087 213.495 112.519 212.985L112.621 212.883H113.716L113.411 213.393C112.901 214.209 112.087 214.617 111.043 214.617" fill="#A57B44"/>
<path d="M130.394 214.566H126.167V213.724L126.396 213.648C126.753 213.546 127.16 213.316 127.16 212.423V207.934C127.16 204.898 126.295 203.622 124.283 203.622C122.653 203.622 121.533 204.49 120.922 206.199V212.423C120.922 213.316 121.329 213.546 121.686 213.648L121.915 213.724V214.566H117.688V213.724L117.917 213.648C118.274 213.546 118.707 213.316 118.707 212.423V200.485C118.707 200.485 118.707 200.179 118.554 200.179C118.452 200.179 118.35 200.23 118.223 200.332L117.714 200.74V199.617L120.26 198.112H120.947V204.158C121.788 203.138 122.959 202.627 124.487 202.627C127.491 202.627 129.426 204.719 129.426 207.934V212.423C129.426 213.316 129.834 213.546 130.19 213.648L130.419 213.724V214.566H130.394Z" fill="#A57B44"/>
<path d="M153.209 214.566H145.493V213.724L145.723 213.648C146.079 213.546 146.486 213.316 146.486 212.423V200.255C146.486 199.362 146.079 199.133 145.723 199.031L145.493 198.954V198.112H152.878C154.94 198.112 156.748 199.923 156.748 201.99C156.748 203.265 156.009 204.541 154.889 205.255C156.57 206.097 157.741 207.832 157.741 209.668C157.741 212.117 155.653 214.362 153.183 214.541L153.209 214.566ZM148.854 213.469H151.579C154.354 213.469 155.093 211.097 155.093 209.694C155.093 208.291 154.354 205.918 151.579 205.918H149.822C149.287 205.918 148.854 206.352 148.854 206.888V213.495V213.469ZM148.854 199.235V203.852C148.854 204.362 149.287 204.796 149.822 204.796H151.579C153.947 204.796 154.125 202.679 154.125 202.041C154.125 201.199 153.871 199.26 151.579 199.26H148.854V199.235Z" fill="#A57B44"/>
<path d="M168.613 214.77C165.15 214.77 162.426 212.066 162.426 208.597C162.426 204.847 164.768 202.423 168.409 202.423C171.363 202.423 172.687 203.954 172.687 205.357C172.687 206.76 171.21 207.5 170.115 207.908L164.87 209.77C165.354 212.143 167.034 213.724 169.148 213.724C170.701 213.724 172.585 212.781 173.222 210.638L173.298 210.408H174.037L173.935 210.791C173.553 212.372 171.821 214.745 168.588 214.745M168.384 203.469C165.71 203.469 164.768 206.071 164.768 208.52C164.768 208.597 164.768 208.699 164.768 208.776L169.428 207.066C170.523 206.429 170.752 205.51 170.574 204.847C170.345 204.005 169.479 203.444 168.384 203.444" fill="#A57B44"/>
<path d="M181.65 214.566C180.199 214.566 178.722 213.725 178.722 211.888V203.674H177.703V202.653H178.111C179.282 202.602 179.919 201.658 180.02 200.714V200.434H180.937V202.679H182.719V203.699H180.937V211.913C180.937 213.469 181.395 213.699 181.828 213.699C182.338 213.699 182.694 213.495 183.127 212.985L183.229 212.883H184.324L184.018 213.393C183.509 214.209 182.694 214.617 181.65 214.617" fill="#A57B44"/>
<path d="M200.976 214.566H196.749V213.724L196.978 213.648C197.335 213.546 197.742 213.316 197.742 212.423V207.934C197.742 204.898 196.877 203.622 194.865 203.622C193.235 203.622 192.115 204.49 191.504 206.199V212.423C191.504 213.316 191.911 213.546 192.268 213.648L192.497 213.724V214.566H188.27V213.724L188.499 213.648C188.856 213.546 189.263 213.316 189.263 212.423V200.485C189.263 200.485 189.263 200.179 189.111 200.179C189.009 200.179 188.907 200.23 188.78 200.332L188.27 200.74V199.617L190.817 198.112H191.504V204.158C192.344 203.138 193.516 202.627 195.018 202.627C198.022 202.627 199.958 204.719 199.958 207.934V212.423C199.958 213.316 200.365 213.546 200.747 213.648L200.976 213.724V214.566Z" fill="#A57B44"/>
<path d="M211.136 214.77C207.673 214.77 204.948 212.066 204.948 208.597C204.948 204.847 207.291 202.423 210.932 202.423C213.886 202.423 215.21 203.954 215.21 205.357C215.21 206.76 213.733 207.5 212.638 207.908L207.393 209.77C207.876 212.143 209.557 213.724 211.67 213.724C213.224 213.724 215.108 212.781 215.744 210.638L215.821 210.408H216.559L216.457 210.791C216.075 212.372 214.344 214.745 211.11 214.745M210.932 203.469C208.258 203.469 207.316 206.071 207.316 208.52C207.316 208.597 207.316 208.699 207.316 208.776L211.976 207.066C213.071 206.429 213.3 205.51 213.122 204.847C212.893 204.005 212.027 203.444 210.932 203.444" fill="#A57B44"/>
<path d="M226.006 215C223.638 215 221.83 213.954 220.989 213.036L220.913 212.934V210.816H221.677L221.728 211.071C222.339 213.469 224.936 214.005 225.802 214.005C227.431 214.005 228.475 213.189 228.475 211.913C228.475 210.638 226.871 209.923 225.165 209.235C223.23 208.418 221.193 207.577 221.193 205.612C221.193 203.291 223.561 202.245 225.904 202.245C227.533 202.245 228.934 202.781 229.85 203.776L229.927 203.878V205.893H229.112V205.561C229.112 203.929 227.584 203.214 226.158 203.214C224.962 203.214 223.561 203.75 223.561 205.23C223.561 206.199 224.86 206.76 226.388 207.398C228.45 208.265 230.793 209.26 230.793 211.76C230.793 213.852 228.323 215 225.98 215" fill="#A57B44"/>
<path d="M247.292 214.566H244.746C244.568 214.566 244.16 214.49 244.084 213.852C243.295 214.337 242.454 214.566 241.436 214.566C237.948 214.566 235.223 211.939 235.223 208.597C235.223 205.255 237.948 202.627 241.436 202.627C242.454 202.627 243.269 202.832 244.059 203.316V200.51C244.059 200.51 244.059 200.204 243.906 200.204C243.804 200.204 243.702 200.255 243.575 200.357L243.066 200.765V199.643L245.612 198.138H246.299V212.449C246.299 213.342 246.707 213.571 247.063 213.673L247.292 213.75V214.592V214.566ZM241.767 203.648C239.424 203.648 237.566 205.816 237.566 208.597C237.566 211.377 239.424 213.546 241.767 213.546C242.607 213.546 243.32 213.265 244.059 212.627V204.566C243.32 203.929 242.633 203.648 241.767 203.648Z" fill="#A57B44"/>
<path d="M261.933 214.566H259.82C259.183 214.566 258.776 214.209 258.725 213.648C258.139 214.107 257.172 214.566 255.72 214.566C252.614 214.566 251.519 212.525 251.519 210.791C251.519 208.316 253.709 207.755 255.619 207.245C256.968 206.888 258.216 206.556 258.674 205.663C258.47 203.98 257.834 203.163 256.688 203.163C254.116 203.163 253.785 205.842 253.76 205.944L253.683 206.658L252.054 204.821L252.13 204.643C252.13 204.643 253.098 202.194 256.561 202.194C260.635 202.194 260.966 205.179 260.966 206.071V212.372C260.966 213.265 261.398 213.495 261.755 213.597L261.984 213.673V214.515L261.933 214.566ZM258.699 207.066C258.216 207.423 257.528 207.653 256.841 207.883C255.287 208.393 253.836 208.852 253.836 210.867C253.836 212.5 254.804 213.597 256.204 213.597C257.197 213.597 258.114 213.138 258.699 212.398V207.092V207.066Z" fill="#A57B44"/>
<path d="M90.6726 169.643H44.9929V170.74H90.6726V169.643Z" fill="#A57B44"/>
<path d="M277.312 169.643H231.633V170.74H277.312V169.643Z" fill="#A57B44"/>
<path d="M119.802 175.944L112.163 161.607H109.158L118.376 179.439H119.954L129.044 161.607H127.16L119.802 175.944Z" fill="#003841"/>
<path d="M142.54 161.607H139.917V179.464H142.54V161.607Z" fill="#003841"/>
<path d="M156.9 179.439H173.12V177.934H159.498V171.276H171.134V169.745H159.498V163.112H173.12V161.607H156.9V179.439Z" fill="#003841"/>
<path d="M210.983 161.607L205.076 175.842L198.481 161.607H195.705L196.775 163.954L191.962 175.791L185.52 161.607H182.719L190.435 179.439H192.268L197.742 166.097L203.726 179.439H205.356L212.842 161.607H210.983Z" fill="#003841"/>
<path d="M12.401 133.954C7.3849 132.474 3.74377 129.515 3.74377 126.939C3.74377 123.01 6.62103 120.179 10.5677 120.179C11.739 120.179 13.2413 120.459 14.7181 120.944C15.8894 121.429 17.0352 122.551 17.5699 123.75L19.0212 127.092L19.9379 126.964V121.275L19.7597 121.173C17.3916 119.719 13.5468 118.648 10.6186 118.648C5.06782 118.648 1.04475 122.628 1.04475 128.087C1.04475 131.684 4.81319 135.408 10.033 136.939C15.151 138.418 18.8685 141.607 18.8685 144.515C18.8685 148.112 15.9912 150.714 11.9936 150.714C10.7205 150.714 9.26912 150.561 7.5886 150.255C5.44975 149.668 3.25998 147.679 2.26695 145.408C2.19056 145.23 2.08871 145 2.01232 144.796C1.91047 144.541 1.83409 144.311 1.73224 144.107L1.63039 143.878H0.586426V149.643L0.764663 149.745C3.1836 151.224 7.7923 152.27 11.9681 152.27C17.519 152.27 21.542 148.52 21.542 143.342C21.542 139.49 17.6972 135.536 12.3755 133.98" fill="#003841"/>
<path d="M54.363 123.878C54.1593 121.148 54.0575 120.026 53.9556 119.566L53.9047 118.878H26.0488L25.9215 120.051L25.7941 121.607C25.6923 122.806 25.5904 124.082 25.5141 125.077L25.4631 125.536L26.4816 125.408L27.5511 123.265C28.3659 121.607 30.0973 120.408 31.676 120.408H38.1944V152.015H41.8355V120.408H48.2266C49.8562 120.408 51.5876 121.582 52.4024 123.265L53.4718 125.434H54.4903L54.4394 125C54.4394 125 54.3885 124.464 54.3376 123.878" fill="#003841"/>
<path d="M82.8556 147.321L82.4228 146.786C79.2909 142.959 76.7956 139.847 75.166 137.806C75.1405 137.781 75.115 137.73 75.0896 137.704H75.0641C74.7586 137.321 74.0201 136.556 73.3072 136.122C73.3581 136.122 73.4091 136.122 73.4345 136.122C73.5618 136.122 73.6891 136.071 73.8419 136.046C78.7816 135.026 81.9644 131.684 81.9644 127.5C81.9644 122.449 77.7631 118.801 71.9322 118.801L59.2265 118.903L59.1755 120.077L59.8885 120.179C60.8815 120.255 61.569 121.173 61.569 122.398V152.066H65.1592V136.454H69.6661C70.6591 137.73 72.8743 140.383 75.446 143.52L78.0941 146.76C81.9644 151.454 82.6265 152.066 85.682 152.066H87.1333V150.689H86.7514C85.6565 150.689 85.631 150.689 82.8811 147.347M65.1338 134.872V120.255H71.8813C75.497 120.255 78.1451 123.291 78.1451 127.5C78.1451 131.99 75.3951 134.898 71.1174 134.898H65.1592L65.1338 134.872Z" fill="#003841"/>
<path d="M113.003 148.546L101.8 118.112H100.552L90.2653 148.623C90.2653 148.623 90.2144 148.75 90.138 148.878L89.0686 152.092H90.8001L94.6449 140.434H106.179L110.406 152.092H116.033V150.714H115.651C114.48 150.714 113.691 150.051 113.003 148.546ZM95.1287 138.903L100.221 123.571L105.645 138.903H95.1287Z" fill="#003841"/>
<path d="M143.558 123.878C143.354 121.148 143.253 120.026 143.151 119.566L143.1 118.852H115.218L115.091 120.051L114.964 121.607C114.862 122.806 114.76 124.082 114.684 125.077L114.633 125.536L115.651 125.408L116.721 123.265C117.536 121.607 119.267 120.408 120.846 120.408H127.364V152.015H131.005V120.408H137.396C139.026 120.408 140.757 121.582 141.572 123.265L142.642 125.434H143.66L143.609 125C143.609 125 143.558 124.464 143.507 123.878" fill="#003841"/>
<path d="M174.113 133.801H154.532V118.878L150.891 118.852V152.066H154.532V135.357H174.113V152.066H177.754V118.852H174.113V133.801Z" fill="#003841"/>
<path d="M219.767 121.964L219.64 118.852H216.406L205.534 147.296L193.923 118.852H188.678V120.077L189.391 120.153C190.256 120.23 190.918 120.995 190.995 121.99L189.925 152.066H191.657L191.784 148.163C191.784 148.163 191.784 147.985 191.784 147.883L192.599 124.643C193.999 128.036 195.425 131.429 196.826 134.821C199.194 140.536 201.562 146.25 203.955 151.964L204.057 152.194H205.279L216.559 123.393L217.527 152.041H221.041L219.767 122.347C219.767 122.347 219.767 122.092 219.767 121.913" fill="#003841"/>
<path d="M245.433 118.776C236.089 118.776 229.316 125.816 229.316 135.51C229.316 145.204 236.089 152.245 245.433 152.245C254.778 152.245 261.551 145.204 261.551 135.51C261.551 125.816 254.778 118.776 245.433 118.776ZM245.433 120.281C252.232 120.281 257.146 126.684 257.146 135.51C257.146 144.337 252.232 150.74 245.433 150.74C238.635 150.74 233.721 144.337 233.721 135.51C233.721 126.684 238.635 120.281 245.433 120.281Z" fill="#003841"/>
<path d="M291.75 147.347L291.317 146.837C288.185 142.985 285.69 139.898 284.06 137.857L283.958 137.73C283.653 137.372 283.092 136.582 282.354 136.148C282.405 136.148 282.456 136.148 282.481 136.148C282.609 136.148 282.736 136.097 282.889 136.071C287.829 135.051 291.011 131.709 291.011 127.526C291.011 122.474 286.785 118.827 280.979 118.827L268.222 118.98V120.102L268.935 120.204C269.928 120.281 270.616 121.199 270.616 122.423V152.092H274.206V136.48H278.738C279.731 137.73 281.718 140.383 284.213 143.444L286.963 146.811C290.833 151.505 291.495 152.092 294.551 152.092H296.002V150.714H295.62C294.525 150.714 294.5 150.714 291.75 147.372M274.206 134.872V120.255H280.954C284.569 120.255 287.217 123.291 287.217 127.5C287.217 131.99 284.467 134.898 280.19 134.898H274.232L274.206 134.872Z" fill="#003841"/>
<path d="M306.772 150.434V135.077H318.052V133.52H306.772V120.306H320.955V118.801H300.789V120.026L301.502 120.128C302.495 120.204 303.182 121.122 303.182 122.347V152.015H321.133L321.413 150.408H306.798L306.772 150.434Z" fill="#003841"/>
<path d="M12.401 133.954C7.3849 132.474 3.74377 129.515 3.74377 126.939C3.74377 123.01 6.62103 120.179 10.5677 120.179C11.739 120.179 13.2413 120.459 14.7181 120.944C15.8894 121.429 17.0352 122.551 17.5699 123.75L19.0212 127.092L19.9379 126.964V121.275L19.7597 121.173C17.3916 119.719 13.5468 118.648 10.6186 118.648C5.06782 118.648 1.04475 122.628 1.04475 128.087C1.04475 131.684 4.81319 135.408 10.033 136.939C15.151 138.418 18.8685 141.607 18.8685 144.515C18.8685 148.112 15.9912 150.714 11.9936 150.714C10.7205 150.714 9.26912 150.561 7.5886 150.255C5.44975 149.668 3.25998 147.679 2.26695 145.408C2.19056 145.23 2.08871 145 2.01232 144.796C1.91047 144.541 1.83409 144.311 1.73224 144.107L1.63039 143.878H0.586426V149.643L0.764663 149.745C3.1836 151.224 7.7923 152.27 11.9681 152.27C17.519 152.27 21.542 148.52 21.542 143.342C21.542 139.49 17.6972 135.536 12.3755 133.98" fill="#003841"/>
<path d="M54.363 123.878C54.1593 121.148 54.0575 120.026 53.9556 119.566L53.9047 118.878H26.0488L25.9215 120.051L25.7941 121.607C25.6923 122.806 25.5904 124.082 25.5141 125.077L25.4631 125.536L26.4816 125.408L27.5511 123.265C28.3659 121.607 30.0973 120.408 31.676 120.408H38.1944V152.015H41.8355V120.408H48.2266C49.8562 120.408 51.5876 121.582 52.4024 123.265L53.4718 125.434H54.4903L54.4394 125C54.4394 125 54.3885 124.464 54.3376 123.878" fill="#003841"/>
<path d="M82.8556 147.321L82.4228 146.786C79.2909 142.959 76.7956 139.847 75.166 137.806C75.1405 137.781 75.115 137.73 75.0896 137.704H75.0641C74.7586 137.321 74.0201 136.556 73.3072 136.122C73.3581 136.122 73.4091 136.122 73.4345 136.122C73.5618 136.122 73.6891 136.071 73.8419 136.046C78.7816 135.026 81.9644 131.684 81.9644 127.5C81.9644 122.449 77.7631 118.801 71.9322 118.801L59.2265 118.903L59.1755 120.077L59.8885 120.179C60.8815 120.255 61.569 121.173 61.569 122.398V152.066H65.1592V136.454H69.6661C70.6591 137.73 72.8743 140.383 75.446 143.52L78.0941 146.76C81.9644 151.454 82.6265 152.066 85.682 152.066H87.1333V150.689H86.7514C85.6565 150.689 85.631 150.689 82.8811 147.347M65.1338 134.872V120.255H71.8813C75.497 120.255 78.1451 123.291 78.1451 127.5C78.1451 131.99 75.3951 134.898 71.1174 134.898H65.1592L65.1338 134.872Z" fill="#003841"/>
<path d="M113.003 148.546L101.8 118.112H100.552L90.2653 148.623C90.2653 148.623 90.2144 148.75 90.138 148.878L89.0686 152.092H90.8001L94.6449 140.434H106.179L110.406 152.092H116.033V150.714H115.651C114.48 150.714 113.691 150.051 113.003 148.546ZM95.1287 138.903L100.221 123.571L105.645 138.903H95.1287Z" fill="#003841"/>
<path d="M143.558 123.878C143.354 121.148 143.253 120.026 143.151 119.566L143.1 118.852H115.218L115.091 120.051L114.964 121.607C114.862 122.806 114.76 124.082 114.684 125.077L114.633 125.536L115.651 125.408L116.721 123.265C117.536 121.607 119.267 120.408 120.846 120.408H127.364V152.015H131.005V120.408H137.396C139.026 120.408 140.757 121.582 141.572 123.265L142.642 125.434H143.66L143.609 125C143.609 125 143.558 124.464 143.507 123.878" fill="#003841"/>
<path d="M174.113 133.801H154.532V118.878L150.891 118.852V152.066H154.532V135.357H174.113V152.066H177.754V118.852H174.113V133.801Z" fill="#003841"/>
<path d="M219.767 121.964L219.64 118.852H216.406L205.534 147.296L193.923 118.852H188.678V120.077L189.391 120.153C190.256 120.23 190.918 120.995 190.995 121.99L189.925 152.066H191.657L191.784 148.163C191.784 148.163 191.784 147.985 191.784 147.883L192.599 124.643C193.999 128.036 195.425 131.429 196.826 134.821C199.194 140.536 201.562 146.25 203.955 151.964L204.057 152.194H205.279L216.559 123.393L217.527 152.041H221.041L219.767 122.347C219.767 122.347 219.767 122.092 219.767 121.913" fill="#003841"/>
<path d="M245.433 118.776C236.089 118.776 229.316 125.816 229.316 135.51C229.316 145.204 236.089 152.245 245.433 152.245C254.778 152.245 261.551 145.204 261.551 135.51C261.551 125.816 254.778 118.776 245.433 118.776ZM245.433 120.281C252.232 120.281 257.146 126.684 257.146 135.51C257.146 144.337 252.232 150.74 245.433 150.74C238.635 150.74 233.721 144.337 233.721 135.51C233.721 126.684 238.635 120.281 245.433 120.281Z" fill="#003841"/>
<path d="M291.75 147.347L291.317 146.837C288.185 142.985 285.69 139.898 284.06 137.857L283.958 137.73C283.653 137.372 283.092 136.582 282.354 136.148C282.405 136.148 282.456 136.148 282.481 136.148C282.609 136.148 282.736 136.097 282.889 136.071C287.829 135.051 291.011 131.709 291.011 127.526C291.011 122.474 286.785 118.827 280.979 118.827L268.222 118.98V120.102L268.935 120.204C269.928 120.281 270.616 121.199 270.616 122.423V152.092H274.206V136.48H278.738C279.731 137.73 281.718 140.383 284.213 143.444L286.963 146.811C290.833 151.505 291.495 152.092 294.551 152.092H296.002V150.714H295.62C294.525 150.714 294.5 150.714 291.75 147.372M274.206 134.872V120.255H280.954C284.569 120.255 287.217 123.291 287.217 127.5C287.217 131.99 284.467 134.898 280.19 134.898H274.232L274.206 134.872Z" fill="#003841"/>
<path d="M306.772 150.434V135.077H318.052V133.52H306.772V120.306H320.955V118.801H300.789V120.026L301.502 120.128C302.495 120.204 303.182 121.122 303.182 122.347V152.015H321.133L321.413 150.408H306.798L306.772 150.434Z" fill="#003841"/>
<path d="M161.738 15.8419C161.917 15.6633 162.171 15.5103 162.248 15.8419C162.248 15.9694 162.019 16.4031 161.84 16.7603C162.146 17.0409 162.273 16.7858 162.451 16.6072C162.579 16.1225 162.681 15.5868 162.451 15.1276C162.146 14.8215 162.324 14.4388 162.451 14.0562C162.655 13.9797 162.808 13.9286 163.037 13.8266C162.884 13.648 162.808 13.5715 162.706 13.4694C162.782 12.9082 163.419 12.5256 163.394 11.9133C163.394 11.8878 163.495 11.8113 163.546 11.8113C163.826 11.8113 163.928 11.5817 164.081 11.4031C164.259 11.1735 164.488 10.9694 164.718 10.7909C165.049 10.4848 165.507 10.2297 165.685 9.87251C166.016 9.18373 166.576 8.67353 167.111 8.13781C167.569 7.67863 167.926 7.16843 167.799 6.58169C167.773 6.40312 167.799 6.25006 167.799 6.07149H167.773C167.493 5.8674 167.518 6.30108 167.264 6.3521C166.882 6.40312 166.525 6.50516 166.118 6.6072C165.787 6.40312 165.812 5.63781 165.074 6.14802C165.074 5.91843 165.252 5.58679 165.278 5.43373C165.201 5.38271 165.049 5.43373 164.998 5.48475C164.921 5.53577 164.463 5.94394 164.412 6.02047C163.928 7.1174 163.113 8.08679 162.324 9.05618C162.146 9.28577 161.815 9.66843 161.688 9.64292C161.178 9.54087 161.331 10.1531 160.949 10.2807C160.898 10.2807 160.72 10.3317 160.567 10.3317C159.523 10.3317 159.37 10.5103 158.861 11.6072C158.53 12.296 158.25 13.0358 157.894 13.7245C157.435 14.5664 156.952 15.4337 156.57 16.3266C156.366 16.7603 156.315 17.2705 156.188 17.7552C156.06 18.2143 155.882 18.648 155.755 19.0817C155.322 19.1582 154.864 19.2858 154.431 19.3623C154.1 19.4133 153.845 19.6684 153.667 20.0511C153.489 20.4082 153.387 20.8164 153.361 21.2246C153.259 22.5511 152.114 25.0766 151.91 26.3776C151.834 27.1174 151.528 27.8827 151.528 28.597C151.579 29.6939 151.375 31.0205 151.121 32.1174C151.095 32.245 151.172 32.4235 151.197 32.5511C151.299 32.3215 151.426 32.1174 151.553 31.8368C151.757 32.449 152.139 32.8317 152.088 33.648C151.655 33.3929 151.681 32.5001 151.172 32.5256C151.35 34.5154 151.604 36.3266 151.783 38.3164C151.808 38.7501 152.063 39.1837 152.139 39.6174C152.241 40.0766 152.266 40.5358 152.368 40.9695C152.674 42.449 153.565 43.6225 153.82 45.1021C153.845 45.2807 153.947 45.4848 154.023 45.6378C154.431 46.2501 154.533 46.8623 154.329 47.5001C154.329 47.5001 154.66 47.6786 154.685 47.8062C154.991 49.1072 156.086 50.2297 156.85 51.2756C156.901 51.3266 156.926 51.4031 156.977 51.4797C156.875 52.1174 157.13 52.7042 157.537 53.2654C157.868 54.0307 158.301 54.847 158.734 55.6123C158.938 55.9695 158.836 56.148 158.734 56.3776C158.938 56.5052 159.192 56.6327 159.37 56.8113C159.574 57.0154 159.829 57.245 159.931 57.5001C160.313 58.2909 160.873 58.648 161.56 58.8266C161.789 58.9031 162.095 59.1072 162.222 59.3113C162.757 60.1276 163.241 60.9439 163.75 61.7603C163.75 61.7603 163.877 61.8113 163.928 61.8623C164.387 62.449 164.819 63.0358 165.303 63.6225C165.965 64.4388 166.678 65.2297 167.315 66.046C167.544 66.3266 167.671 66.7093 167.849 67.0409C168.333 67.9848 168.817 68.9031 169.504 69.6939C169.937 70.1786 170.268 70.6888 170.548 71.2756C170.803 71.8113 171.032 72.4235 171.389 72.8317C171.822 73.3419 172.254 73.7501 172.407 74.4388C172.458 74.7705 172.738 75.0766 172.891 75.4082C173.044 75.7399 173.324 76.2501 173.247 76.3776C172.967 76.8623 173.604 76.9133 173.579 77.2705C173.579 77.4235 173.68 77.6276 173.68 77.8062C173.68 77.9848 173.655 78.1633 173.629 78.3674C174.011 78.5205 174.393 78.648 174.775 78.8266C174.877 78.8776 175.004 78.9542 175.081 79.0817C175.59 80.0256 175.921 81.097 175.615 82.0919C175.437 82.6531 175.514 83.1378 175.514 83.6735C175.514 84.1072 175.59 84.5409 175.615 84.9746C176.507 85.5613 177.372 85.7399 178.085 84.6684V84.4133C178.085 84.4133 177.983 84.1837 177.983 84.0817C177.983 83.6991 178.009 83.2909 178.009 82.8827L177.907 81.7093L177.805 80.5358C177.754 80.1531 177.678 79.7705 177.602 79.3878C177.118 78.8776 177.525 78.3419 177.321 77.8062C177.627 77.4235 177.372 76.8878 177.271 76.4031C177.271 75.8929 176.889 75.5358 176.685 75.1021C176.176 74.0817 175.717 73.0103 175.157 72.0154C175.106 71.9133 175.132 71.8113 175.106 71.6837C174.673 70.995 174.215 70.2807 173.68 69.5409C173.629 69.2093 173.553 68.7501 173.528 68.3164C173.502 67.8572 173.324 67.5001 173.044 67.0664C172.509 66.2246 172 65.4082 171.261 64.7705C171.16 64.6684 171.032 64.5409 170.981 64.4133C170.167 62.6021 168.817 61.1225 167.773 59.4644C167.391 58.8521 166.984 58.2654 166.5 57.7297C165.889 57.0154 165.15 56.3776 164.845 55.4848C164.692 55.0001 164.285 54.7705 163.877 54.5409C163.75 54.4644 163.597 54.3368 163.495 54.2603C163.495 54.0562 163.495 53.9031 163.495 53.6735C163.164 53.495 162.859 53.3419 162.63 52.9082C162.375 52.2705 161.968 51.7858 161.637 51.046C161.255 50.1531 160.898 49.2603 160.287 48.4695C160.058 48.1888 159.803 47.8062 159.778 47.4746C159.701 46.5307 159.141 45.8164 158.836 44.9746C158.989 44.847 159.116 44.6939 158.989 44.3878C158.657 43.597 158.428 42.7552 158.046 41.9899C157.97 41.8113 157.792 41.5817 157.817 41.4541C157.894 41.1225 157.919 40.9439 157.588 40.7144C157.461 40.6378 157.435 40.2552 157.435 40.0256C157.435 39.4899 157.486 38.9797 157.563 38.495C157.41 38.2144 157.181 37.9848 157.13 37.7041C156.901 36.2756 156.748 34.8215 156.722 33.3929C156.722 33.0613 156.85 32.7297 156.85 32.398C156.85 32.0919 156.773 31.7603 156.748 31.4541C156.748 31.148 156.773 30.8674 156.824 30.5613C156.824 30.5613 156.671 30.6888 156.57 30.7399C156.391 30.2552 156.799 30.2041 156.926 29.9746C156.493 29.4899 156.493 29.4388 157.002 29.1072C157.002 29.1072 156.799 28.8521 156.722 28.7246C157.053 27.9848 157.053 27.1939 156.952 26.4286C156.901 26.199 156.952 26.0205 157.002 25.7909C157.079 25.3062 157.308 24.8215 157.461 24.3623C157.639 23.9031 157.715 23.4184 157.715 22.8827C157.715 22.3725 159.192 21.046 159.498 20.8419C159.396 20.5358 159.039 20.1786 159.574 19.8725C160.083 19.5409 159.931 18.9797 160.058 18.495C160.109 18.3164 160.083 18.0868 160.185 17.9848C160.516 17.6531 160.898 17.398 161.255 17.1174C161.382 16.8113 161.586 16.5307 161.764 16.2501C161.891 16.046 161.84 15.9694 161.662 15.9439L161.738 15.8419ZM154.711 33.3929V33.4439C154.711 33.4439 154.813 33.597 154.736 33.4694C154.736 33.6225 154.736 33.5205 154.736 33.4184V33.3674L154.711 33.3929ZM155.118 41.0715L155.22 41.199L155.831 41.5562C155.933 41.7858 156.035 42.0154 156.086 42.245C156.213 42.8572 156.289 43.4695 156.62 44.0307C156.722 44.1582 156.773 44.3878 156.748 44.5409C156.697 45.2297 156.977 45.7399 157.614 46.2246C157.461 46.4286 157.359 46.5562 157.257 46.7092C157.715 46.9643 158.021 47.3215 158.021 48.0613C157.614 47.7297 157.41 47.296 157.155 46.9133C157.155 46.9133 157.232 46.7858 157.283 46.7092C156.901 46.1225 156.595 45.4848 156.417 44.796C156.315 44.4388 156.162 44.1072 156.009 43.7756C155.627 43.0103 155.424 42.245 155.831 41.5307C155.577 41.6072 155.322 41.7092 155.246 41.1735L155.118 41.0715ZM155.551 39.3368C155.271 39.1837 155.118 39.1327 154.889 39.0052C155.016 38.8011 155.093 38.648 155.195 38.5205C155.144 38.4695 155.093 38.4184 155.067 38.3674C155.042 38.3164 155.042 38.2399 155.016 38.1888C155.067 38.2399 155.144 38.2654 155.195 38.3419C155.195 38.3674 155.195 38.4695 155.169 38.546C155.271 38.7501 155.347 38.9797 155.526 39.3623M158.759 50.0001L157.97 48.8266C157.97 48.8266 157.868 48.8521 157.792 48.8521C157.741 48.8521 157.69 48.8011 157.639 48.7756C157.69 48.7501 157.766 48.6735 157.817 48.699C157.843 48.699 157.894 48.8011 157.945 48.8521C157.995 48.7501 158.046 48.6225 158.123 48.4184C158.352 48.8266 158.581 49.1837 158.785 49.5664C158.836 49.6684 158.734 49.847 158.708 50.0001C158.938 50.3062 159.294 50.5868 159.09 51.0205L159.447 51.5052L159.32 51.5817L159.09 51.0205L158.607 50.7144C158.479 50.4337 158.53 50.1786 158.683 50.0001M155.831 46.7348C156.009 46.8113 156.239 46.9133 156.468 47.0154L156.417 47.245C156.196 47.245 155.992 47.0749 155.806 46.7348M165.329 61.097C165.329 61.097 165.227 61.097 165.176 61.097L165.099 60.5868L165.354 60.6633C165.354 60.8164 165.354 60.9695 165.354 61.097M152.725 26.046L152.852 25.9694C152.878 26.1225 152.928 26.3011 152.979 26.4541L152.852 26.5307C152.801 26.3776 152.75 26.199 152.725 26.046ZM154.609 34.6429C154.609 34.6429 154.634 34.5409 154.66 34.4643L154.813 34.6174L154.711 34.745C154.711 34.745 154.609 34.6684 154.609 34.6174M155.067 37.7041C155.067 37.7041 154.991 37.6021 154.965 37.5511C154.965 37.5511 154.965 37.5001 154.991 37.4746L155.093 37.6276L155.042 37.7041H155.067ZM166.194 61.9388L166.245 61.8623C166.245 61.8623 166.296 61.9133 166.322 61.9388C166.322 61.9388 166.296 61.9644 166.271 61.9899L166.194 61.9388ZM163.419 58.1378C163.419 58.1378 163.444 58.0868 163.47 58.0613C163.47 58.0613 163.546 58.1123 163.546 58.1378C163.546 58.1378 163.546 58.1888 163.495 58.2144C163.495 58.2144 163.419 58.1633 163.419 58.1378Z" fill="#A57B44"/>
<path d="M168.868 4.97452C168.486 5.1786 168.104 5.30615 167.646 5.15309C167.824 5.02554 167.926 4.94901 168.028 4.89799C168.028 4.89799 167.773 4.77044 167.646 4.69391C167.544 4.61738 167.416 4.51534 167.366 4.38778C167.289 4.20921 167.518 3.80105 167.773 3.75003C167.926 3.72452 168.129 3.82656 168.18 3.95411C168.308 4.36227 168.588 4.69391 168.842 5.00003L168.868 4.97452Z" fill="#A57B44"/>
<path d="M170.396 3.52041C169.861 3.46939 169.912 3.87755 169.81 4.13266C169.657 4.10715 169.53 4.05613 169.403 4.03061C169.454 3.01021 169.53 2.93368 170.599 2.52551C170.803 2.83164 170.778 3.16327 170.396 3.52041Z" fill="#A57B44"/>
<path d="M170.345 1.1735C170.345 1.1735 170.701 1.04595 170.65 1.47963C170.014 1.96432 169.402 2.39799 168.715 2.9082C168.613 2.37248 169.224 2.32146 169.453 2.06636C169.733 1.78575 170.014 1.50514 170.345 1.1735Z" fill="#A57B44"/>
<path d="M166.372 5.94385C166.067 5.61222 166.22 5.20406 166.474 4.74487C166.703 5.17855 166.678 5.15304 166.372 5.94385Z" fill="#A57B44"/>
<path d="M171.567 0.204102C171.567 0.204102 171.694 0.357163 171.669 0.408183C171.643 0.484714 171.49 0.561245 171.414 0.663285C171.389 0.586755 171.312 0.484714 171.338 0.408183C171.338 0.331653 171.516 0.280632 171.592 0.204102H171.567Z" fill="#A57B44"/>
<path d="M170.523 1.07141C170.523 1.07141 170.65 1.22447 170.625 1.27549C170.599 1.35202 170.446 1.42855 170.37 1.53059C170.345 1.45406 170.268 1.35202 170.294 1.27549C170.294 1.19896 170.472 1.14794 170.548 1.07141H170.523Z" fill="#A57B44"/>
<path d="M160.898 23.4694L160.72 23.597L160.567 23.3419C160.567 23.3419 160.72 23.2653 160.771 23.2909C160.822 23.2909 160.847 23.3929 160.898 23.4694Z" fill="#A57B44"/>
<path d="M171.643 0.994995C171.643 0.994995 171.694 1.09704 171.694 1.14806C171.694 1.22459 171.618 1.30112 171.567 1.37765H171.49C171.49 1.30112 171.49 1.22459 171.49 1.14806C171.49 1.09704 171.592 1.07153 171.669 1.02051L171.643 0.994995Z" fill="#A57B44"/>
<path d="M165.66 75.1276C165.66 75.1276 165.609 75.2296 165.583 75.2551C165.558 75.2551 165.507 75.2041 165.456 75.1786C165.456 75.1276 165.481 75.051 165.532 75.051C165.583 75.051 165.634 75.102 165.66 75.1276Z" fill="#A57B44"/>
<path d="M175.208 80.1531C175.208 80.1531 175.183 80.3061 175.157 80.3826C175.081 80.3316 174.979 80.2806 174.953 80.1786C174.953 80.1275 174.979 80.0255 175.004 79.949L175.233 80.1531H175.208Z" fill="#A57B44"/>
<path d="M174.801 79.3877L174.75 79.3367C174.75 79.2856 174.801 79.2601 174.826 79.2091L174.877 79.2601C174.877 79.3111 174.826 79.3367 174.801 79.3877Z" fill="#A57B44"/>
<path d="M157.97 29.8724C157.97 29.8724 157.868 29.8469 157.843 29.7959C157.843 29.7704 157.843 29.7194 157.868 29.6683L158.046 29.7704L157.944 29.8469L157.97 29.8724Z" fill="#A57B44"/>
<path d="M161.356 59.6938C161.356 59.6938 161.178 59.6428 161.102 59.6173C161.102 59.5663 161.102 59.4642 161.127 59.4642C161.178 59.4642 161.255 59.4642 161.306 59.4897C161.331 59.4897 161.331 59.5918 161.356 59.6938Z" fill="#A57B44"/>
<path d="M170.421 4.08161C170.37 3.90304 169.963 3.82651 170.396 3.52039V4.08161H170.421Z" fill="#A57B44"/>
<path d="M169.352 4.23461L169.301 4.48971L169.123 4.36216C169.123 4.36216 169.25 4.2091 169.326 4.13257V4.23461H169.352Z" fill="#A57B44"/>
<path d="M171.516 2.14281L171.567 2.06628C171.618 2.06628 171.669 2.09179 171.72 2.1173C171.72 2.14281 171.669 2.19384 171.669 2.19384C171.618 2.19384 171.567 2.16832 171.516 2.14281Z" fill="#A57B44"/>
<path d="M165.609 5.38268C165.609 5.38268 165.66 5.25512 165.71 5.22961C165.761 5.22961 165.787 5.25512 165.838 5.28063C165.812 5.33166 165.787 5.40819 165.736 5.4337C165.685 5.4337 165.66 5.40819 165.609 5.38268Z" fill="#A57B44"/>
<path d="M172.509 0.204082C172.509 0.204082 172.407 0.229592 172.407 0.204082C172.382 0.153061 172.356 0.102041 172.331 0.0510204L172.484 0V0.178571L172.509 0.204082Z" fill="#A57B44"/>
<path d="M171.669 3.54566L171.745 3.49487V3.59644H171.694C171.694 3.59644 171.694 3.54566 171.694 3.52026" fill="#A57B44"/>
<path d="M166.449 4.2091H166.322L166.423 4.10706L166.449 4.2091Z" fill="#A57B44"/>
<path d="M167.213 66.4541C167.213 66.4541 167.136 66.4031 167.111 66.3776L167.162 66.3265C167.162 66.3265 167.187 66.4031 167.213 66.4541Z" fill="#A57B44"/>
<path d="M171.134 1.60718H171.236L171.185 1.73473C171.185 1.73473 171.109 1.73473 171.109 1.70922C171.109 1.70922 171.109 1.6582 171.134 1.63269" fill="#A57B44"/>
<path d="M164.106 13.3669L164.157 13.2908L164.182 13.3669H164.106Z" fill="#A57B44"/>
<path d="M167.136 8.59644V8.52026C167.136 8.52026 167.187 8.49487 167.212 8.49487C167.212 8.49487 167.212 8.54566 167.212 8.57105C167.212 8.57105 167.162 8.57105 167.136 8.59644Z" fill="#A57B44"/>
<path d="M174.24 69.3878L174.189 69.1582C174.189 69.1582 174.393 69.2602 174.47 69.3368C174.47 69.3368 174.47 69.4643 174.444 69.5409L174.24 69.4133V69.3878Z" fill="#A57B44"/>
<path d="M177.27 76.2244L177.372 76.2498C177.372 76.2498 177.321 76.2244 177.27 76.199V76.2244Z" fill="#A57B44"/>
<path d="M158.174 41.8622L158.148 41.6581V41.8367L158.174 41.8622Z" fill="#A57B44"/>
<path d="M161.356 17.0153L161.484 16.9897L161.356 17.0153Z" fill="#A57B44"/>
<path d="M159.676 19.7704L159.777 19.872L159.676 19.7704Z" fill="#A57B44"/>
<path d="M170.396 71.8623H170.446C170.446 71.8623 170.446 71.9131 170.446 71.9385H170.396V71.8623Z" fill="#A57B44"/>
<path d="M166.704 65.6632H166.754C166.754 65.6632 166.78 65.714 166.754 65.7394C166.754 65.7394 166.729 65.7394 166.704 65.7394V65.6632Z" fill="#A57B44"/>
<path d="M169.683 4.64282L169.377 4.69384C169.377 4.69384 169.479 4.61731 169.504 4.61731C169.555 4.61731 169.606 4.64282 169.657 4.66833L169.683 4.64282Z" fill="#A57B44"/>
<path d="M166.805 4.71935L166.907 4.61731L166.932 4.71935H166.805Z" fill="#A57B44"/>
<path d="M169.683 4.69241L169.732 4.66762L169.683 4.64282V4.69241Z" fill="#A57B44"/>
<path d="M164.463 104.362C164.845 104.362 165.252 104.362 165.176 104.745C164.59 104.847 164.005 105 163.419 105.025C163.292 105.434 163.75 105.434 164.157 105.408C164.947 105.153 165.685 104.898 165.965 104.337C166.042 103.903 166.602 103.673 167.06 103.418C167.34 103.469 167.544 103.469 167.9 103.52C167.9 103.291 167.9 103.163 167.9 103.01C168.486 102.576 169.454 102.398 169.836 101.735C169.836 101.709 170.039 101.658 170.09 101.658C170.396 101.735 170.65 101.505 170.93 101.326C171.261 101.097 171.669 100.944 172 100.714C172.509 100.357 173.171 100.076 173.451 99.5918C174.113 98.7244 174.673 97.9591 175.284 97.1428C175.768 96.403 176.099 95.6632 175.743 95.0765C175.666 94.9234 175.615 94.6938 175.565 94.5153C175.03 94.5153 175.463 95.0765 175.157 95.102C174.801 95.3316 174.419 95.5612 174.011 95.7908C173.629 95.6632 173.349 95.1275 172.713 95.7653C172.713 95.5612 172.713 95.3826 172.662 95.204C172.535 95.2551 172.458 95.2806 172.407 95.3061C172.331 95.3826 172.229 95.4847 172.229 95.5612C172 96.7602 170.981 97.6785 170.039 98.5204C169.81 98.6989 169.352 98.954 169.224 98.903C168.792 98.6479 168.715 99.2857 168.282 99.2347C168.231 99.2347 168.053 99.1836 167.926 99.1071C167.009 98.6734 166.882 98.6479 165.914 99.2347C165.278 99.5408 164.616 99.8724 163.877 100C162.961 100.179 162.222 99.9489 161.306 99.9234C160.847 99.9489 160.185 100.204 159.701 100.204C159.243 100.204 158.607 99.6683 158.174 99.5918C158.072 99.1581 157.563 99.5408 157.537 99.1071C157.512 98.7755 157.206 98.6734 156.926 98.5459C156.646 98.3673 156.34 97.8571 156.035 97.7806C154.991 97.5 154.227 97.1683 153.387 96.352C153.132 96.1479 152.597 95.8163 152.343 95.6122C152.088 95.4081 152.139 94.7704 151.935 94.5408C151.222 93.8775 151.095 93.0867 150.942 92.1173C150.917 92.0153 150.815 91.8877 150.739 91.7857C150.688 92.0153 150.662 92.2449 150.637 92.5C150.204 92.0663 149.746 91.8112 149.618 91.0204C150.051 91.1734 150.28 91.9898 150.764 91.7857C150.077 90.204 149.644 88.3673 150.102 86.5816C150.204 86.1989 150.178 85.7653 150.28 85.3571C150.408 84.9489 150.586 84.5663 150.815 84.2091C151.401 82.9847 152.139 81.8877 153.387 81.1479C153.514 81.0459 153.616 80.7142 153.718 80.5612C154.125 80 154.736 79.7959 155.322 79.9489C155.322 79.9489 155.475 79.6173 155.577 79.5918C156.748 79.2602 157.843 78.903 159.014 78.5969C159.09 78.5969 159.167 78.5969 159.218 78.5714C159.472 78.7245 159.752 78.8265 160.032 78.8775C160.313 78.9285 160.618 78.9285 160.924 78.9285C161.688 79.0816 162.375 79.3877 163.037 79.7449C163.343 79.8979 163.317 80.1275 163.317 80.3571C163.521 80.3571 163.775 80.3571 163.979 80.4336C164.208 80.5357 164.488 80.6377 164.616 80.8418C165.074 81.454 165.558 81.6836 166.245 81.8622C166.474 81.9132 166.729 82.1683 166.856 82.3724C167.264 83.2398 167.467 84.1836 167.518 85.102C167.518 85.102 167.442 85.5357 167.442 85.6122C167.569 86.3265 167.722 86.7346 167.646 87.4234C167.544 88.4183 167.366 89.2602 166.755 90.1275C166.551 90.4336 166.22 90.6632 165.94 90.8673C165.1 91.1989 164.641 91.8367 163.75 92.2959C163.19 92.551 162.044 92.8571 161.433 92.7806C160.847 92.704 160.007 92.5 159.498 92.4489C158.887 92.3979 158.81 92.0153 158.428 91.4285C158.25 91.1734 157.792 91.0969 157.563 90.8163C157.359 90.5357 157.079 89.9234 157.181 89.7704C157.486 89.2857 156.901 89.4132 156.952 89.0816C156.977 88.9285 156.799 88.9285 156.824 88.7755C156.85 88.5969 156.952 88.4693 157.028 88.2908C156.722 88.0867 156.62 87.8571 156.34 87.551C156.264 87.4489 156.162 87.3214 156.162 87.1938C156.162 86.1479 156.671 84.8724 157.69 84.6428C158.25 84.5153 158.428 83.9285 158.912 83.7755C159.294 83.6734 159.956 83.5459 160.389 83.5459C160.949 82.7296 162.019 83.2653 160.567 82.4744L160.109 82.3724C160.058 82.1938 159.982 82.0918 159.88 82.1173L159.141 82.2704C158.989 82.3214 158.963 82.0408 158.81 82.0663C156.875 82.2193 155.144 83.2398 154.151 85.3061C154.125 85.7653 153.972 86.0969 153.794 86.4285C153.641 86.7602 153.743 87.0663 153.769 87.4489C153.31 87.7806 153.667 88.4438 153.743 89.2091C153.667 89.9489 153.743 90.4847 154.074 91.1224C154.787 92.704 155.602 93.7245 157.079 94.6173C157.206 94.6938 157.41 95.204 157.537 95.3316C158.683 95.8673 159.905 96.352 161.204 96.3265C161.637 96.4796 162.833 96.1479 163.419 96.2755C164.056 96.403 164.692 96.3265 165.431 96.0969C166.882 95.6377 167.799 95.1275 168.715 93.9796C168.868 93.801 169.021 93.5969 169.173 93.4694C170.345 92.5 171.109 91.3265 171.618 89.8214C171.873 89.0816 171.847 88.3163 171.923 87.551C172 86.8367 172.204 86.0714 172.178 85.3571C172.127 84.2857 171.923 83.1632 171.516 82.1683C170.956 80.7908 170.09 79.6683 169.377 78.3928C168.995 77.704 168.359 77.3469 167.748 77.0663C167.518 76.9387 167.289 76.8367 167.086 76.7602C166.933 76.5051 166.831 76.301 166.627 76.0459C166.067 75.9183 165.583 75.7908 164.896 75.4081C163.877 74.8469 162.681 74.5408 161.535 74.3622C160.058 74.1071 158.607 74.0306 157.232 74.5408C156.722 74.6938 156.137 74.9744 155.678 75C154.303 75.102 153.209 75.8673 152.139 76.5816C151.935 76.4796 151.732 76.403 151.324 76.7347C150.28 77.5 149.338 78.4183 148.651 79.4642C148.498 79.6938 148.345 80.0765 148.192 80.1785C147.785 80.4336 147.581 80.6377 147.581 81.1479C147.581 81.3265 147.25 81.7857 147.072 82.0663C146.614 82.6785 146.181 83.3163 145.824 83.9285C145.773 84.3877 145.875 84.8469 145.748 85.2551C145.239 87.3724 145.239 89.5663 145.646 91.6836C145.723 92.1938 145.723 92.6785 145.85 93.1887C145.977 93.6479 146.232 94.0816 146.461 94.5153C146.665 94.8979 146.767 95.3571 146.996 95.7398C146.996 95.7398 147.047 95.5102 147.072 95.3826C147.581 95.9183 147.301 96.1734 147.378 96.5306C148.116 96.8877 148.141 96.8877 148.091 97.6275C148.269 97.6785 148.473 97.7806 148.676 97.8571C149.211 98.903 149.949 100.179 150.942 100.689C151.248 100.867 151.426 100.995 151.706 101.224C152.801 102.117 153.947 103.138 155.398 103.393C156.137 103.469 156.366 103.469 156.697 103.826C157.13 103.801 157.512 103.393 158.123 103.954C158.785 104.49 159.549 104.209 160.236 104.26C160.491 104.26 160.847 104.133 161.025 104.209C161.662 104.413 162.273 104.668 162.884 104.821C163.394 104.796 163.877 104.821 164.387 104.719C164.743 104.668 164.768 104.566 164.692 104.413L164.463 104.362ZM147.581 91.1224V91.0714C147.581 91.0714 147.454 90.8928 147.53 91.0459C147.479 90.8673 147.53 90.9949 147.53 91.0969V91.1479L147.581 91.1224ZM149.618 82.551V82.3724L149.516 81.6071C149.669 81.352 149.797 81.0969 150 80.8673C150.484 80.3061 151.095 79.8724 151.553 79.2602C151.655 79.1071 151.884 78.9285 152.063 78.8775C152.827 78.6224 153.31 78.1887 153.845 77.4234C154.074 77.5255 154.252 77.6275 154.431 77.704C154.711 77.1938 155.195 76.8367 156.06 76.8622C155.602 77.2704 155.093 77.4744 154.66 77.7806C154.634 77.7806 154.507 77.704 154.405 77.6785C154.074 77.9336 153.743 78.1632 153.412 78.3928C153.081 78.6224 152.75 78.852 152.394 79.0816C152.037 79.3112 151.732 79.6428 151.477 79.9489C151.172 80.3061 150.891 80.6887 150.56 80.9693C150.255 81.2755 149.898 81.5051 149.466 81.6326C149.695 81.7602 149.924 81.8877 149.567 82.3724V82.551H149.618ZM148.065 83.903C148.218 84.2091 148.294 84.3622 148.422 84.6173C148.192 84.7704 148.04 84.8724 147.912 84.9744C147.912 85.051 147.938 85.1275 147.938 85.204C147.938 85.2806 147.912 85.3571 147.887 85.4336C147.861 85.3571 147.81 85.2806 147.785 85.204C147.785 85.153 147.861 85.0765 147.912 85C147.912 84.7194 147.989 84.4387 148.065 83.903ZM158.505 76.5051C157.97 76.6326 157.435 76.7857 156.926 76.9898C156.926 77.0408 156.926 77.1173 156.926 77.1683C156.926 77.2193 156.85 77.2704 156.799 77.3214C156.799 77.2704 156.722 77.1938 156.748 77.1173C156.748 77.0918 156.875 77.0408 156.952 76.9898C156.824 76.9387 156.722 76.8622 156.493 76.7602C157.028 76.5306 157.512 76.403 158.021 76.3265C158.174 76.301 158.326 76.454 158.479 76.5306C158.912 76.454 159.421 76.1734 159.778 76.5816L160.491 76.5051V76.6581L159.803 76.5816C159.625 76.6836 159.421 76.7602 159.243 76.8622C158.861 76.8622 158.632 76.7347 158.479 76.5051M154.558 79.1326C154.609 78.954 154.711 78.6989 154.787 78.4693H155.016C155.033 78.7074 154.872 78.9285 154.533 79.1326M168.944 85.5102C168.944 85.5102 168.868 85.4591 168.817 85.4081L168.995 84.8469L169.199 85.0765C169.123 85.2296 169.072 85.3826 168.97 85.5102M153.132 96.8112C153.132 96.8112 153.54 97.1428 153.514 97.2449C153.514 97.3469 152.521 96.6071 152.521 96.6071C152.521 96.6071 152.292 96.0204 152.343 96.0204C152.394 96.0204 153.132 96.8112 153.132 96.8112ZM147.505 89.6428C147.505 89.6428 147.479 89.7704 147.454 89.8469L147.301 89.6428L147.403 89.4898C147.403 89.4898 147.505 89.5918 147.505 89.6428ZM147.632 85.9438C147.632 85.9438 147.658 86.0714 147.683 86.1479C147.683 86.1479 147.632 86.1989 147.632 86.2245L147.581 86.0204L147.632 85.9438ZM169.173 86.8877H169.25C169.25 86.8877 169.25 86.9642 169.25 86.9898C169.25 86.9898 169.199 86.9898 169.173 86.9898V86.8622V86.8877ZM167.977 81.5816C167.977 81.5816 168.002 81.5306 168.028 81.5051C168.053 81.5306 168.104 81.5816 168.104 81.6071C168.104 81.6326 168.079 81.6581 168.053 81.6836C168.028 81.6581 167.977 81.6071 167.977 81.6071" fill="#A57B44"/>
<path d="M175.565 93.0103C175.335 93.4439 175.055 93.7756 174.546 93.8521C174.673 93.648 174.724 93.5205 174.801 93.3929C174.648 93.3929 174.495 93.4184 174.368 93.3929C174.241 93.3929 174.088 93.3419 173.986 93.2654C173.833 93.1378 173.859 92.6786 174.011 92.5256C174.113 92.4235 174.368 92.398 174.47 92.4746C174.801 92.7552 175.208 92.8827 175.59 93.0103H175.565Z" fill="#A57B44"/>
<path d="M175.972 90.7398C175.513 91.0969 175.844 91.3775 175.895 91.6837C175.743 91.7602 175.641 91.8367 175.539 91.8877C174.928 90.9694 174.953 90.9184 175.437 89.8469C175.794 89.8979 176.048 90.1786 175.972 90.7398Z" fill="#A57B44"/>
<path d="M176.659 88.954C176.787 88.954 176.939 88.954 177.092 88.954C176.99 89.6938 176.838 90.357 176.634 91.1223C176.227 90.7397 176.634 90.4081 176.634 90.1019C176.659 89.7448 176.634 89.3621 176.634 88.954" fill="#A57B44"/>
<path d="M174.139 95.051C173.782 94.847 173.833 94.4133 173.858 93.9031C174.189 94.2092 174.24 94.2092 174.113 95.0765L174.139 95.051Z" fill="#A57B44"/>
<path d="M176.659 88.1887C176.659 88.1887 176.863 88.1377 176.889 88.1887C176.94 88.2397 176.94 88.3673 176.99 88.4693C176.889 88.4693 176.787 88.4693 176.736 88.4183C176.685 88.3673 176.685 88.2397 176.685 88.1632L176.659 88.1887Z" fill="#A57B44"/>
<path d="M177.27 90.0001L177.499 89.4644L177.601 89.5154L177.372 90.0511L177.27 90.0001Z" fill="#A57B44"/>
<path d="M174.419 94.5154C174.419 94.5154 174.648 94.5154 174.775 94.5154L174.928 94.6684C174.826 94.6939 174.724 94.7195 174.622 94.745C174.571 94.694 174.521 94.6174 174.419 94.5154Z" fill="#A57B44"/>
<path d="M175.233 95.5868L175.055 95.4337L175.335 95.3827C175.335 95.3827 175.437 95.5102 175.412 95.5357C175.412 95.5613 175.284 95.5613 175.208 95.5868" fill="#A57B44"/>
<path d="M176.939 87.7551C176.939 87.7551 177.067 87.7551 177.092 87.7806C177.143 87.8317 177.194 87.9082 177.22 87.9847C177.22 87.9847 177.169 88.0612 177.169 88.0357C177.092 88.0102 177.016 87.9847 176.965 87.9082C176.939 87.8827 176.965 87.7806 176.939 87.7041V87.7551Z" fill="#A57B44"/>
<path d="M156.951 85.9693C156.951 85.9693 157.028 85.9183 157.079 85.8928C157.079 85.9438 157.079 85.9949 157.079 86.0459C157.079 86.0714 157.002 86.0969 156.977 86.1224V85.9693H156.951Z" fill="#A57B44"/>
<path d="M156.519 86.9133V86.9899C156.493 87.0154 156.442 87.0409 156.417 87.0664C156.417 87.0409 156.417 86.9899 156.417 86.9899C156.442 86.9899 156.493 86.9388 156.544 86.9388" fill="#A57B44"/>
<path d="M146.894 96.9644C146.894 96.9644 147.021 96.9644 147.072 97.0154C147.123 97.0664 147.148 97.1939 147.199 97.2705L146.919 97.1939V96.9644H146.894Z" fill="#A57B44"/>
<path d="M166.194 82.602C166.194 82.602 166.041 82.551 165.965 82.5255C165.965 82.4745 165.965 82.3979 166.016 82.3979C166.067 82.3979 166.143 82.3979 166.169 82.4235C166.194 82.4235 166.169 82.5255 166.194 82.602Z" fill="#A57B44"/>
<path d="M176.354 91.1479C176.201 91.0459 175.819 91.2755 175.972 90.7142L176.328 91.1479H176.354Z" fill="#A57B44"/>
<path d="M175.539 91.8878L175.641 92.1174L175.513 92.1939C175.513 92.1939 175.539 91.9899 175.539 91.8878Z" fill="#A57B44"/>
<path d="M175.768 88.8775V88.7755C175.819 88.7245 175.87 88.699 175.921 88.6735C175.921 88.699 175.921 88.7755 175.921 88.7755C175.87 88.8265 175.819 88.852 175.768 88.8775Z" fill="#A57B44"/>
<path d="M175.437 93.9795C175.437 93.9795 175.488 93.8774 175.513 93.8774C175.513 93.8774 175.564 93.903 175.615 93.9285C175.615 93.954 175.564 94.0305 175.539 94.0305C175.513 94.0305 175.488 94.005 175.437 93.9795Z" fill="#A57B44"/>
<path d="M177.016 87.4745V87.551C176.965 87.551 176.914 87.551 176.863 87.551V87.4235L177.041 87.4745H177.016Z" fill="#A57B44"/>
<path d="M176.888 89.7449V89.6428L176.99 89.6938C176.99 89.6938 176.965 89.7449 176.939 89.7704C176.939 89.7704 176.914 89.7704 176.888 89.7193" fill="#A57B44"/>
<path d="M166.042 90.1786C166.042 90.1786 166.067 90.102 166.092 90.0765H166.169C166.169 90.0765 166.118 90.1531 166.067 90.1786" fill="#A57B44"/>
<path d="M175.132 88.8265L175.183 88.75L175.259 88.8776C175.259 88.8776 175.208 88.9286 175.183 88.9031C175.183 88.9031 175.157 88.852 175.132 88.8265Z" fill="#A57B44"/>
<path d="M175.284 97.7551V97.6785C175.284 97.6785 175.335 97.602 175.361 97.6275C175.361 97.6275 175.386 97.6785 175.361 97.7041C175.361 97.7296 175.31 97.7551 175.259 97.7806" fill="#A57B44"/>
<path d="M174.699 96.0969H174.775C174.775 96.0969 174.852 96.0969 174.852 96.1479C174.852 96.1479 174.801 96.1479 174.775 96.1735L174.699 96.0969Z" fill="#A57B44"/>
<path d="M160.669 96.6327L161 96.7092C160.847 96.7092 160.72 96.7347 160.542 96.7602C160.516 96.7602 160.389 96.6837 160.312 96.6582H160.669V96.6327Z" fill="#A57B44"/>
<path d="M153.616 89.2345V89.1837C153.616 89.1837 153.565 89.2091 153.616 89.2599V89.2345Z" fill="#A57B44"/>
<path d="M148.498 79.3622L148.294 79.5408L148.498 79.3877V79.3622Z" fill="#A57B44"/>
<path d="M162.655 104.77L162.808 104.872L162.68 104.745L162.655 104.77Z" fill="#A57B44"/>
<path d="M157.944 103.878L157.843 104.005L157.97 103.903L157.944 103.878Z" fill="#A57B44"/>
<path d="M160.821 92.1937V92.2445C160.821 92.2445 160.745 92.2445 160.72 92.2191C160.72 92.2191 160.72 92.1937 160.745 92.1683H160.821V92.1937Z" fill="#A57B44"/>
<path d="M163.215 80.3571L163.139 80.4078C163.139 80.4078 163.189 80.4078 163.215 80.3824V80.3571Z" fill="#A57B44"/>
<path d="M176.15 92.1683L176.023 92.2959C176.023 92.2959 176.048 92.2194 176.074 92.2194C176.099 92.2194 176.125 92.1939 176.175 92.1939L176.15 92.1683Z" fill="#A57B44"/>
<path d="M174.113 95.0765C174.113 95.0765 174.164 95.1527 174.164 95.1781C174.164 95.1781 174.164 95.1273 174.138 95.0765H174.113Z" fill="#A57B44"/>
<path d="M176.507 87.0663L176.608 87.1425H176.557C176.557 87.1425 176.532 87.0917 176.507 87.0663Z" fill="#A57B44"/>
<path d="M176.15 92.1931L176.199 92.1683H176.15V92.1931Z" fill="#A57B44"/>
<path d="M160.771 83.4949C160.771 83.4949 160.974 83.2908 161.076 83.3163C161.204 83.3163 161.331 83.4694 161.458 83.5714C161.331 83.6224 161.204 83.7245 161.076 83.7245C160.974 83.7245 160.873 83.5714 160.771 83.4693V83.4949Z" fill="#A57B44"/>
<path d="M161.535 83.1632C161.535 83.1632 161.662 83.2142 161.713 83.2653C161.764 83.3418 161.764 83.4438 161.789 83.5203L161.713 83.5714C161.637 83.5204 161.56 83.4693 161.535 83.3928C161.535 83.3418 161.56 83.2652 161.586 83.1887L161.535 83.1632Z" fill="#A57B44"/>
<path d="M161.713 82.8315L161.662 82.9081C161.611 82.9081 161.535 82.8826 161.484 82.8571L161.56 82.7295L161.713 82.8315Z" fill="#A57B44"/>
<path d="M176.506 87.0401L176.481 87.0153L176.506 87.0649V87.0401Z" fill="#A57B44"/>
<path d="M165.812 56.7857C165.379 55.7908 162.579 51.097 162.018 49.1582C161 47.6531 160.542 45.3827 160.134 43.5714C159.93 42.6531 159.396 41.8623 159.116 40.9439C158.734 39.6174 158.632 38.2143 158.199 36.9388C157.715 35.5102 157.537 34.0051 157.843 32.5C157.919 32.1174 158.148 31.7602 158.25 31.4031C158.326 31.199 158.454 30.9439 158.326 30.8163C158.225 30.7143 157.792 30.7398 157.512 30.7143C157.512 29.8725 157.512 29.0561 157.639 28.2398C157.664 28.0612 157.919 27.8061 158.148 27.7551C158.657 27.6531 158.734 27.3725 158.988 27.1429C159.549 26.6072 158.912 25.8929 159.396 25.3827L159.065 25.2806C158.759 25.9439 158.479 26.6582 158.199 27.5255C157.664 26.9388 157.486 26.3776 157.639 25.8929C157.868 25.1021 157.512 24.1327 158.225 23.4949C158.326 23.4184 158.225 23.1633 158.25 23.0102C158.301 22.7551 159.447 21.2755 159.523 21.0204L159.803 20C159.905 19.6939 159.93 19.3623 160.058 19.0816C160.567 17.8827 161.611 17.0918 161.866 15.6378C161.891 15.4847 162.018 15.3316 162.171 15.2806C162.782 15.051 163.215 14.6684 163.572 14.1582C163.954 13.699 164.31 13.1633 164.794 12.8316C165.889 12.1684 165.863 10.5357 167.238 10.2041C167.416 10.1531 167.595 10.051 167.697 9.89797C167.926 9.56633 168.409 9.74491 168.104 9.18368C168.359 8.03572 168.104 8.41838 167.773 8.75001C167.391 8.95409 167.875 8.31633 167.951 8.08674C167.951 8.03572 168.078 8.01021 168.18 7.65307C168.359 7.29593 168.129 7.19389 168.129 7.04082C168.18 6.91327 168.231 6.50511 167.722 6.32654C167.136 6.45409 161.789 10.8674 161.229 11.0459C160.974 11.1225 160.72 11.25 160.567 11.4541C159.218 13.1123 157.537 14.6684 156.926 16.9388C156.748 17.6786 155.678 17.5 155.398 18.2143C154.252 20.8929 153.081 25.7398 152.877 28.5714C152.801 29.6684 152.445 30.9694 152.521 32.0408C152.521 32.1429 152.572 32.2959 152.674 32.347C153.412 32.8061 154.583 33.1888 154.558 33.7755C154.532 34.1582 154.532 34.6684 154.787 34.898C155.067 35.1531 155.144 35.3827 155.271 35.6888C155.627 36.4286 155.907 37.1429 155.831 38.0102C155.78 38.4184 155.958 38.801 156.417 38.9796C156.519 39.0306 156.544 39.1582 156.595 39.2347C156.417 39.5153 156.238 39.7959 156.035 40.1276C157.002 40.4847 156.824 41.3776 156.85 42.0153C156.9 43.2398 157.664 44.1837 157.817 45.3572C157.817 45.4847 158.123 45.5102 158.25 45.5868C158.377 45.6633 158.505 45.7653 158.657 45.8674C158.377 46.0459 158.199 46.148 158.021 46.25C158.606 46.6327 159.167 46.9898 159.752 47.347C158.937 47.9337 159.319 48.3163 159.574 48.6735C160.287 49.7959 161.076 50.7908 161.815 51.8112L162.859 53.3419" fill="#A57B44"/>
<path d="M156.671 22.5255C156.671 23.0612 156.493 23.2143 155.856 22.8316C156.086 22.7551 156.289 22.6531 156.671 22.5255Z" fill="#A57B44"/>
<path d="M154.991 31.3265C155.398 31.6072 155.449 31.8367 154.94 32.1429C154.482 31.8623 154.583 31.6327 154.991 31.3265Z" fill="#A57B44"/>
<path d="M155.322 30.5867L155.22 30.4337L155.907 30.1531L156.06 30.3827L155.322 30.5867Z" fill="#A57B44"/>
<path d="M155.195 34.3623L155.322 34.2347C155.449 34.3113 155.627 34.3368 155.729 34.4388C155.831 34.5154 155.857 34.6684 155.908 34.7705L155.755 34.847L155.22 34.3368L155.195 34.3623Z" fill="#A57B44"/>
<path d="M167.849 14.6429C167.213 15.051 166.652 15.5357 166.092 15.9949C165.787 16.301 165.481 16.6072 165.15 16.8878C164.819 17.1684 164.488 17.4235 164.055 17.602C163.852 17.6786 163.826 18.0357 163.724 18.2143C163.622 18.4184 163.495 18.6225 163.342 18.75C162.986 19.0306 162.502 19.2857 162.528 19.898C162.324 20.4337 161.993 20.4847 161.407 20.0255C161.535 19.3623 161.713 18.75 162.273 18.4184C162.528 18.2653 162.655 17.9592 162.808 17.7041C163.088 17.2704 163.444 16.8878 163.673 16.4031C164.234 15.1276 165.812 15.3316 166.5 14.2092C166.678 13.9031 167.315 14.2092 167.696 14.2602L167.824 14.5918L167.849 14.6429Z" fill="#A57B44"/>
<path d="M159.319 24.7194C159.243 24.1326 159.472 23.801 160.185 23.6479C160.083 24.1837 160.414 24.6684 159.319 24.7194Z" fill="#A57B44"/>
<path d="M161 22.0663C160.44 21.5306 160.898 21.301 160.975 20.9183C161.713 21.7347 161.713 21.7092 161 22.0663Z" fill="#A57B44"/>
<path d="M158.53 29.5663L158.25 29.3877L158.454 29.2346C158.454 29.2346 158.632 29.3622 158.683 29.4387C158.683 29.4387 158.581 29.5152 158.505 29.5663" fill="#A57B44"/>
<path d="M172.56 97.2194C173.222 97.3469 173.629 97.3214 174.037 97.3469C174.571 98.0357 174.317 98.5969 173.782 99.0051C172.662 99.949 171.338 100.638 169.886 100.842C170.09 100.612 170.294 100.408 170.497 100.179C171.414 99.3112 171.414 99.2602 170.752 97.6531C170.319 97.7551 170.37 98.0102 169.861 98.0357C169.861 97.8571 169.81 97.398 169.861 97.3469C170.803 96.8623 171.108 96.148 171.872 95.3571C172.687 94.5153 173.476 93.5204 173.935 92.3214C174.52 90.8929 174.953 89.2602 175.055 87.6531C175.055 87.4745 175.361 86.6327 175.463 86.5051C175.692 86.25 175.488 86.6837 175.768 86.4541C175.946 86.7602 176.328 87.0663 176.303 87.3725C176.125 88.9541 176.303 90.8673 174.953 91.9898C174.8 92.1173 174.673 92.398 174.699 92.602C174.469 93.9541 174.088 94.6174 173.553 95.2041C173.094 95.7143 172.814 96.2755 172.585 97.2449" fill="#A57B44"/>
<path d="M161.738 15.8419C161.917 15.6633 162.171 15.5103 162.248 15.8419C162.248 15.9694 162.019 16.4031 161.84 16.7603C162.146 17.0409 162.273 16.7858 162.451 16.6072C162.579 16.1225 162.681 15.5868 162.451 15.1276C162.146 14.8215 162.324 14.4388 162.451 14.0562C162.655 13.9797 162.808 13.9286 163.037 13.8266C162.884 13.648 162.808 13.5715 162.706 13.4694C162.782 12.9082 163.419 12.5256 163.394 11.9133C163.394 11.8878 163.495 11.8113 163.546 11.8113C163.826 11.8113 163.928 11.5817 164.081 11.4031C164.259 11.1735 164.488 10.9694 164.718 10.7909C165.049 10.4848 165.507 10.2297 165.685 9.87251C166.016 9.18373 166.576 8.67353 167.111 8.13781C167.569 7.67863 167.926 7.16843 167.799 6.58169C167.773 6.40312 167.799 6.25006 167.799 6.07149H167.773C167.493 5.8674 167.518 6.30108 167.264 6.3521C166.882 6.40312 166.525 6.50516 166.118 6.6072C165.787 6.40312 165.812 5.63781 165.074 6.14802C165.074 5.91843 165.252 5.58679 165.278 5.43373C165.201 5.38271 165.049 5.43373 164.998 5.48475C164.921 5.53577 164.463 5.94394 164.412 6.02047C163.928 7.1174 163.113 8.08679 162.324 9.05618C162.146 9.28577 161.815 9.66843 161.688 9.64292C161.178 9.54087 161.331 10.1531 160.949 10.2807C160.898 10.2807 160.72 10.3317 160.567 10.3317C159.523 10.3317 159.37 10.5103 158.861 11.6072C158.53 12.296 158.25 13.0358 157.894 13.7245C157.435 14.5664 156.952 15.4337 156.57 16.3266C156.366 16.7603 156.315 17.2705 156.188 17.7552C156.06 18.2143 155.882 18.648 155.755 19.0817C155.322 19.1582 154.864 19.2858 154.431 19.3623C154.1 19.4133 153.845 19.6684 153.667 20.0511C153.489 20.4082 153.387 20.8164 153.361 21.2246C153.259 22.5511 152.114 25.0766 151.91 26.3776C151.834 27.1174 151.528 27.8827 151.528 28.597C151.579 29.6939 151.375 31.0205 151.121 32.1174C151.095 32.245 151.172 32.4235 151.197 32.5511C151.299 32.3215 151.426 32.1174 151.553 31.8368C151.757 32.449 152.139 32.8317 152.088 33.648C151.655 33.3929 151.681 32.5001 151.172 32.5256C151.35 34.5154 151.604 36.3266 151.783 38.3164C151.808 38.7501 152.063 39.1837 152.139 39.6174C152.241 40.0766 152.266 40.5358 152.368 40.9695C152.674 42.449 153.565 43.6225 153.82 45.1021C153.845 45.2807 153.947 45.4848 154.023 45.6378C154.431 46.2501 154.533 46.8623 154.329 47.5001C154.329 47.5001 154.66 47.6786 154.685 47.8062C154.991 49.1072 156.086 50.2297 156.85 51.2756C156.901 51.3266 156.926 51.4031 156.977 51.4797C156.875 52.1174 157.13 52.7042 157.537 53.2654C157.868 54.0307 158.301 54.847 158.734 55.6123C158.938 55.9695 158.836 56.148 158.734 56.3776C158.938 56.5052 159.192 56.6327 159.37 56.8113C159.574 57.0154 159.829 57.245 159.931 57.5001C160.313 58.2909 160.873 58.648 161.56 58.8266C161.789 58.9031 162.095 59.1072 162.222 59.3113C162.757 60.1276 163.241 60.9439 163.75 61.7603C163.75 61.7603 163.877 61.8113 163.928 61.8623C164.387 62.449 164.819 63.0358 165.303 63.6225C165.965 64.4388 166.678 65.2297 167.315 66.046C167.544 66.3266 167.671 66.7093 167.849 67.0409C168.333 67.9848 168.817 68.9031 169.504 69.6939C169.937 70.1786 170.268 70.6888 170.548 71.2756C170.803 71.8113 171.032 72.4235 171.389 72.8317C171.822 73.3419 172.254 73.7501 172.407 74.4388C172.458 74.7705 172.738 75.0766 172.891 75.4082C173.044 75.7399 173.324 76.2501 173.247 76.3776C172.967 76.8623 173.604 76.9133 173.579 77.2705C173.579 77.4235 173.68 77.6276 173.68 77.8062C173.68 77.9848 173.655 78.1633 173.629 78.3674C174.011 78.5205 174.393 78.648 174.775 78.8266C174.877 78.8776 175.004 78.9542 175.081 79.0817C175.59 80.0256 175.921 81.097 175.615 82.0919C175.437 82.6531 175.514 83.1378 175.514 83.6735C175.514 84.1072 175.59 84.5409 175.615 84.9746C176.507 85.5613 177.372 85.7399 178.085 84.6684V84.4133C178.085 84.4133 177.983 84.1837 177.983 84.0817C177.983 83.6991 178.009 83.2909 178.009 82.8827L177.907 81.7093L177.805 80.5358C177.754 80.1531 177.678 79.7705 177.602 79.3878C177.118 78.8776 177.525 78.3419 177.321 77.8062C177.627 77.4235 177.372 76.8878 177.271 76.4031C177.271 75.8929 176.889 75.5358 176.685 75.1021C176.176 74.0817 175.717 73.0103 175.157 72.0154C175.106 71.9133 175.132 71.8113 175.106 71.6837C174.673 70.995 174.215 70.2807 173.68 69.5409C173.629 69.2093 173.553 68.7501 173.528 68.3164C173.502 67.8572 173.324 67.5001 173.044 67.0664C172.509 66.2246 172 65.4082 171.261 64.7705C171.16 64.6684 171.032 64.5409 170.981 64.4133C170.167 62.6021 168.817 61.1225 167.773 59.4644C167.391 58.8521 166.984 58.2654 166.5 57.7297C165.889 57.0154 165.15 56.3776 164.845 55.4848C164.692 55.0001 164.285 54.7705 163.877 54.5409C163.75 54.4644 163.597 54.3368 163.495 54.2603C163.495 54.0562 163.495 53.9031 163.495 53.6735C163.164 53.495 162.859 53.3419 162.63 52.9082C162.375 52.2705 161.968 51.7858 161.637 51.046C161.255 50.1531 160.898 49.2603 160.287 48.4695C160.058 48.1888 159.803 47.8062 159.778 47.4746C159.701 46.5307 159.141 45.8164 158.836 44.9746C158.989 44.847 159.116 44.6939 158.989 44.3878C158.657 43.597 158.428 42.7552 158.046 41.9899C157.97 41.8113 157.792 41.5817 157.817 41.4541C157.894 41.1225 157.919 40.9439 157.588 40.7144C157.461 40.6378 157.435 40.2552 157.435 40.0256C157.435 39.4899 157.486 38.9797 157.563 38.495C157.41 38.2144 157.181 37.9848 157.13 37.7041C156.901 36.2756 156.748 34.8215 156.722 33.3929C156.722 33.0613 156.85 32.7297 156.85 32.398C156.85 32.0919 156.773 31.7603 156.748 31.4541C156.748 31.148 156.773 30.8674 156.824 30.5613C156.824 30.5613 156.671 30.6888 156.57 30.7399C156.391 30.2552 156.799 30.2041 156.926 29.9746C156.493 29.4899 156.493 29.4388 157.002 29.1072C157.002 29.1072 156.799 28.8521 156.722 28.7246C157.053 27.9848 157.053 27.1939 156.952 26.4286C156.901 26.199 156.952 26.0205 157.002 25.7909C157.079 25.3062 157.308 24.8215 157.461 24.3623C157.639 23.9031 157.715 23.4184 157.715 22.8827C157.715 22.3725 159.192 21.046 159.498 20.8419C159.396 20.5358 159.039 20.1786 159.574 19.8725C160.083 19.5409 159.931 18.9797 160.058 18.495C160.109 18.3164 160.083 18.0868 160.185 17.9848C160.516 17.6531 160.898 17.398 161.255 17.1174C161.382 16.8113 161.586 16.5307 161.764 16.2501C161.891 16.046 161.84 15.9694 161.662 15.9439L161.738 15.8419ZM154.711 33.3929V33.4439C154.711 33.4439 154.813 33.597 154.736 33.4694C154.736 33.6225 154.736 33.5205 154.736 33.4184V33.3674L154.711 33.3929ZM155.118 41.0715L155.22 41.199L155.831 41.5562C155.933 41.7858 156.035 42.0154 156.086 42.245C156.213 42.8572 156.289 43.4695 156.62 44.0307C156.722 44.1582 156.773 44.3878 156.748 44.5409C156.697 45.2297 156.977 45.7399 157.614 46.2246C157.461 46.4286 157.359 46.5562 157.257 46.7092C157.715 46.9643 158.021 47.3215 158.021 48.0613C157.614 47.7297 157.41 47.296 157.155 46.9133C157.155 46.9133 157.232 46.7858 157.283 46.7092C156.901 46.1225 156.595 45.4848 156.417 44.796C156.315 44.4388 156.162 44.1072 156.009 43.7756C155.627 43.0103 155.424 42.245 155.831 41.5307C155.577 41.6072 155.322 41.7092 155.246 41.1735L155.118 41.0715ZM155.551 39.3368C155.271 39.1837 155.118 39.1327 154.889 39.0052C155.016 38.8011 155.093 38.648 155.195 38.5205C155.144 38.4695 155.093 38.4184 155.067 38.3674C155.042 38.3164 155.042 38.2399 155.016 38.1888C155.067 38.2399 155.144 38.2654 155.195 38.3419C155.195 38.3674 155.195 38.4695 155.169 38.546C155.271 38.7501 155.347 38.9797 155.526 39.3623M158.759 50.0001L157.97 48.8266C157.97 48.8266 157.868 48.8521 157.792 48.8521C157.741 48.8521 157.69 48.8011 157.639 48.7756C157.69 48.7501 157.766 48.6735 157.817 48.699C157.843 48.699 157.894 48.8011 157.945 48.8521C157.995 48.7501 158.046 48.6225 158.123 48.4184C158.352 48.8266 158.581 49.1837 158.785 49.5664C158.836 49.6684 158.734 49.847 158.708 50.0001C158.938 50.3062 159.294 50.5868 159.09 51.0205L159.447 51.5052L159.32 51.5817L159.09 51.0205L158.607 50.7144C158.479 50.4337 158.53 50.1786 158.683 50.0001M155.831 46.7348C156.009 46.8113 156.239 46.9133 156.468 47.0154L156.417 47.245C156.196 47.245 155.992 47.0749 155.806 46.7348M165.329 61.097C165.329 61.097 165.227 61.097 165.176 61.097L165.099 60.5868L165.354 60.6633C165.354 60.8164 165.354 60.9695 165.354 61.097M152.725 26.046L152.852 25.9694C152.878 26.1225 152.928 26.3011 152.979 26.4541L152.852 26.5307C152.801 26.3776 152.75 26.199 152.725 26.046ZM154.609 34.6429C154.609 34.6429 154.634 34.5409 154.66 34.4643L154.813 34.6174L154.711 34.745C154.711 34.745 154.609 34.6684 154.609 34.6174M155.067 37.7041C155.067 37.7041 154.991 37.6021 154.965 37.5511C154.965 37.5511 154.965 37.5001 154.991 37.4746L155.093 37.6276L155.042 37.7041H155.067ZM166.194 61.9388L166.245 61.8623C166.245 61.8623 166.296 61.9133 166.322 61.9388C166.322 61.9388 166.296 61.9644 166.271 61.9899L166.194 61.9388ZM163.419 58.1378C163.419 58.1378 163.444 58.0868 163.47 58.0613C163.47 58.0613 163.546 58.1123 163.546 58.1378C163.546 58.1378 163.546 58.1888 163.495 58.2144C163.495 58.2144 163.419 58.1633 163.419 58.1378Z" fill="#A57B44"/>
<path d="M168.868 4.97452C168.486 5.1786 168.104 5.30615 167.646 5.15309C167.824 5.02554 167.926 4.94901 168.028 4.89799C168.028 4.89799 167.773 4.77044 167.646 4.69391C167.544 4.61738 167.416 4.51534 167.366 4.38778C167.289 4.20921 167.518 3.80105 167.773 3.75003C167.926 3.72452 168.129 3.82656 168.18 3.95411C168.308 4.36227 168.588 4.69391 168.842 5.00003L168.868 4.97452Z" fill="#A57B44"/>
<path d="M170.396 3.52041C169.861 3.46939 169.912 3.87755 169.81 4.13266C169.657 4.10715 169.53 4.05613 169.403 4.03061C169.454 3.01021 169.53 2.93368 170.599 2.52551C170.803 2.83164 170.778 3.16327 170.396 3.52041Z" fill="#A57B44"/>
<path d="M170.345 1.1735C170.345 1.1735 170.701 1.04595 170.65 1.47963C170.014 1.96432 169.402 2.39799 168.715 2.9082C168.613 2.37248 169.224 2.32146 169.453 2.06636C169.733 1.78575 170.014 1.50514 170.345 1.1735Z" fill="#A57B44"/>
<path d="M166.372 5.94385C166.067 5.61222 166.22 5.20406 166.474 4.74487C166.703 5.17855 166.678 5.15304 166.372 5.94385Z" fill="#A57B44"/>
<path d="M171.567 0.204102C171.567 0.204102 171.694 0.357163 171.669 0.408183C171.643 0.484714 171.49 0.561245 171.414 0.663285C171.389 0.586755 171.312 0.484714 171.338 0.408183C171.338 0.331653 171.516 0.280632 171.592 0.204102H171.567Z" fill="#A57B44"/>
<path d="M170.523 1.07141C170.523 1.07141 170.65 1.22447 170.625 1.27549C170.599 1.35202 170.446 1.42855 170.37 1.53059C170.345 1.45406 170.268 1.35202 170.294 1.27549C170.294 1.19896 170.472 1.14794 170.548 1.07141H170.523Z" fill="#A57B44"/>
<path d="M160.898 23.4694L160.72 23.597L160.567 23.3419C160.567 23.3419 160.72 23.2653 160.771 23.2909C160.822 23.2909 160.847 23.3929 160.898 23.4694Z" fill="#A57B44"/>
<path d="M171.643 0.994995C171.643 0.994995 171.694 1.09704 171.694 1.14806C171.694 1.22459 171.618 1.30112 171.567 1.37765H171.49C171.49 1.30112 171.49 1.22459 171.49 1.14806C171.49 1.09704 171.592 1.07153 171.669 1.02051L171.643 0.994995Z" fill="#A57B44"/>
<path d="M165.66 75.1276C165.66 75.1276 165.609 75.2296 165.583 75.2551C165.558 75.2551 165.507 75.2041 165.456 75.1786C165.456 75.1276 165.481 75.051 165.532 75.051C165.583 75.051 165.634 75.102 165.66 75.1276Z" fill="#A57B44"/>
<path d="M175.208 80.1531C175.208 80.1531 175.183 80.3061 175.157 80.3826C175.081 80.3316 174.979 80.2806 174.953 80.1786C174.953 80.1275 174.979 80.0255 175.004 79.949L175.233 80.1531H175.208Z" fill="#A57B44"/>
<path d="M174.801 79.3877L174.75 79.3367C174.75 79.2856 174.801 79.2601 174.826 79.2091L174.877 79.2601C174.877 79.3111 174.826 79.3367 174.801 79.3877Z" fill="#A57B44"/>
<path d="M157.97 29.8724C157.97 29.8724 157.868 29.8469 157.843 29.7959C157.843 29.7704 157.843 29.7194 157.868 29.6683L158.046 29.7704L157.944 29.8469L157.97 29.8724Z" fill="#A57B44"/>
<path d="M161.356 59.6938C161.356 59.6938 161.178 59.6428 161.102 59.6173C161.102 59.5663 161.102 59.4642 161.127 59.4642C161.178 59.4642 161.255 59.4642 161.306 59.4897C161.331 59.4897 161.331 59.5918 161.356 59.6938Z" fill="#A57B44"/>
<path d="M170.421 4.08161C170.37 3.90304 169.963 3.82651 170.396 3.52039V4.08161H170.421Z" fill="#A57B44"/>
<path d="M169.352 4.23461L169.301 4.48971L169.123 4.36216C169.123 4.36216 169.25 4.2091 169.326 4.13257V4.23461H169.352Z" fill="#A57B44"/>
<path d="M171.516 2.14281L171.567 2.06628C171.618 2.06628 171.669 2.09179 171.72 2.1173C171.72 2.14281 171.669 2.19384 171.669 2.19384C171.618 2.19384 171.567 2.16832 171.516 2.14281Z" fill="#A57B44"/>
<path d="M165.609 5.38268C165.609 5.38268 165.66 5.25512 165.71 5.22961C165.761 5.22961 165.787 5.25512 165.838 5.28063C165.812 5.33166 165.787 5.40819 165.736 5.4337C165.685 5.4337 165.66 5.40819 165.609 5.38268Z" fill="#A57B44"/>
<path d="M172.509 0.204082C172.509 0.204082 172.407 0.229592 172.407 0.204082C172.382 0.153061 172.356 0.102041 172.331 0.0510204L172.484 0V0.178571L172.509 0.204082Z" fill="#A57B44"/>
<path d="M171.669 3.54566L171.745 3.49487V3.59644H171.694C171.694 3.59644 171.694 3.54566 171.694 3.52026" fill="#A57B44"/>
<path d="M166.449 4.2091H166.322L166.423 4.10706L166.449 4.2091Z" fill="#A57B44"/>
<path d="M167.213 66.4541C167.213 66.4541 167.136 66.4031 167.111 66.3776L167.162 66.3265C167.162 66.3265 167.187 66.4031 167.213 66.4541Z" fill="#A57B44"/>
<path d="M171.134 1.60718H171.236L171.185 1.73473C171.185 1.73473 171.109 1.73473 171.109 1.70922C171.109 1.70922 171.109 1.6582 171.134 1.63269" fill="#A57B44"/>
<path d="M164.106 13.3669L164.157 13.2908L164.182 13.3669H164.106Z" fill="#A57B44"/>
<path d="M167.136 8.59644V8.52026C167.136 8.52026 167.187 8.49487 167.212 8.49487C167.212 8.49487 167.212 8.54566 167.212 8.57105C167.212 8.57105 167.162 8.57105 167.136 8.59644Z" fill="#A57B44"/>
<path d="M174.24 69.3878L174.189 69.1582C174.189 69.1582 174.393 69.2602 174.47 69.3368C174.47 69.3368 174.47 69.4643 174.444 69.5409L174.24 69.4133V69.3878Z" fill="#A57B44"/>
<path d="M177.27 76.2244L177.372 76.2498C177.372 76.2498 177.321 76.2244 177.27 76.199V76.2244Z" fill="#A57B44"/>
<path d="M158.174 41.8622L158.148 41.6581V41.8367L158.174 41.8622Z" fill="#A57B44"/>
<path d="M161.356 17.0153L161.484 16.9897L161.356 17.0153Z" fill="#A57B44"/>
<path d="M159.676 19.7704L159.777 19.872L159.676 19.7704Z" fill="#A57B44"/>
<path d="M170.396 71.8623H170.446C170.446 71.8623 170.446 71.9131 170.446 71.9385H170.396V71.8623Z" fill="#A57B44"/>
<path d="M166.704 65.6632H166.754C166.754 65.6632 166.78 65.714 166.754 65.7394C166.754 65.7394 166.729 65.7394 166.704 65.7394V65.6632Z" fill="#A57B44"/>
<path d="M169.683 4.64282L169.377 4.69384C169.377 4.69384 169.479 4.61731 169.504 4.61731C169.555 4.61731 169.606 4.64282 169.657 4.66833L169.683 4.64282Z" fill="#A57B44"/>
<path d="M166.805 4.71935L166.907 4.61731L166.932 4.71935H166.805Z" fill="#A57B44"/>
<path d="M169.683 4.69241L169.732 4.66762L169.683 4.64282V4.69241Z" fill="#A57B44"/>
<path d="M164.463 104.362C164.845 104.362 165.252 104.362 165.176 104.745C164.59 104.847 164.005 105 163.419 105.025C163.292 105.434 163.75 105.434 164.157 105.408C164.947 105.153 165.685 104.898 165.965 104.337C166.042 103.903 166.602 103.673 167.06 103.418C167.34 103.469 167.544 103.469 167.9 103.52C167.9 103.291 167.9 103.163 167.9 103.01C168.486 102.576 169.454 102.398 169.836 101.735C169.836 101.709 170.039 101.658 170.09 101.658C170.396 101.735 170.65 101.505 170.93 101.326C171.261 101.097 171.669 100.944 172 100.714C172.509 100.357 173.171 100.076 173.451 99.5918C174.113 98.7244 174.673 97.9591 175.284 97.1428C175.768 96.403 176.099 95.6632 175.743 95.0765C175.666 94.9234 175.615 94.6938 175.565 94.5153C175.03 94.5153 175.463 95.0765 175.157 95.102C174.801 95.3316 174.419 95.5612 174.011 95.7908C173.629 95.6632 173.349 95.1275 172.713 95.7653C172.713 95.5612 172.713 95.3826 172.662 95.204C172.535 95.2551 172.458 95.2806 172.407 95.3061C172.331 95.3826 172.229 95.4847 172.229 95.5612C172 96.7602 170.981 97.6785 170.039 98.5204C169.81 98.6989 169.352 98.954 169.224 98.903C168.792 98.6479 168.715 99.2857 168.282 99.2347C168.231 99.2347 168.053 99.1836 167.926 99.1071C167.009 98.6734 166.882 98.6479 165.914 99.2347C165.278 99.5408 164.616 99.8724 163.877 100C162.961 100.179 162.222 99.9489 161.306 99.9234C160.847 99.9489 160.185 100.204 159.701 100.204C159.243 100.204 158.607 99.6683 158.174 99.5918C158.072 99.1581 157.563 99.5408 157.537 99.1071C157.512 98.7755 157.206 98.6734 156.926 98.5459C156.646 98.3673 156.34 97.8571 156.035 97.7806C154.991 97.5 154.227 97.1683 153.387 96.352C153.132 96.1479 152.597 95.8163 152.343 95.6122C152.088 95.4081 152.139 94.7704 151.935 94.5408C151.222 93.8775 151.095 93.0867 150.942 92.1173C150.917 92.0153 150.815 91.8877 150.739 91.7857C150.688 92.0153 150.662 92.2449 150.637 92.5C150.204 92.0663 149.746 91.8112 149.618 91.0204C150.051 91.1734 150.28 91.9898 150.764 91.7857C150.077 90.204 149.644 88.3673 150.102 86.5816C150.204 86.1989 150.178 85.7653 150.28 85.3571C150.408 84.9489 150.586 84.5663 150.815 84.2091C151.401 82.9847 152.139 81.8877 153.387 81.1479C153.514 81.0459 153.616 80.7142 153.718 80.5612C154.125 80 154.736 79.7959 155.322 79.9489C155.322 79.9489 155.475 79.6173 155.577 79.5918C156.748 79.2602 157.843 78.903 159.014 78.5969C159.09 78.5969 159.167 78.5969 159.218 78.5714C159.472 78.7245 159.752 78.8265 160.032 78.8775C160.313 78.9285 160.618 78.9285 160.924 78.9285C161.688 79.0816 162.375 79.3877 163.037 79.7449C163.343 79.8979 163.317 80.1275 163.317 80.3571C163.521 80.3571 163.775 80.3571 163.979 80.4336C164.208 80.5357 164.488 80.6377 164.616 80.8418C165.074 81.454 165.558 81.6836 166.245 81.8622C166.474 81.9132 166.729 82.1683 166.856 82.3724C167.264 83.2398 167.467 84.1836 167.518 85.102C167.518 85.102 167.442 85.5357 167.442 85.6122C167.569 86.3265 167.722 86.7346 167.646 87.4234C167.544 88.4183 167.366 89.2602 166.755 90.1275C166.551 90.4336 166.22 90.6632 165.94 90.8673C165.1 91.1989 164.641 91.8367 163.75 92.2959C163.19 92.551 162.044 92.8571 161.433 92.7806C160.847 92.704 160.007 92.5 159.498 92.4489C158.887 92.3979 158.81 92.0153 158.428 91.4285C158.25 91.1734 157.792 91.0969 157.563 90.8163C157.359 90.5357 157.079 89.9234 157.181 89.7704C157.486 89.2857 156.901 89.4132 156.952 89.0816C156.977 88.9285 156.799 88.9285 156.824 88.7755C156.85 88.5969 156.952 88.4693 157.028 88.2908C156.722 88.0867 156.62 87.8571 156.34 87.551C156.264 87.4489 156.162 87.3214 156.162 87.1938C156.162 86.1479 156.671 84.8724 157.69 84.6428C158.25 84.5153 158.428 83.9285 158.912 83.7755C159.294 83.6734 159.956 83.5459 160.389 83.5459C160.949 82.7296 162.019 83.2653 160.567 82.4744L160.109 82.3724C160.058 82.1938 159.982 82.0918 159.88 82.1173L159.141 82.2704C158.989 82.3214 158.963 82.0408 158.81 82.0663C156.875 82.2193 155.144 83.2398 154.151 85.3061C154.125 85.7653 153.972 86.0969 153.794 86.4285C153.641 86.7602 153.743 87.0663 153.769 87.4489C153.31 87.7806 153.667 88.4438 153.743 89.2091C153.667 89.9489 153.743 90.4847 154.074 91.1224C154.787 92.704 155.602 93.7245 157.079 94.6173C157.206 94.6938 157.41 95.204 157.537 95.3316C158.683 95.8673 159.905 96.352 161.204 96.3265C161.637 96.4796 162.833 96.1479 163.419 96.2755C164.056 96.403 164.692 96.3265 165.431 96.0969C166.882 95.6377 167.799 95.1275 168.715 93.9796C168.868 93.801 169.021 93.5969 169.173 93.4694C170.345 92.5 171.109 91.3265 171.618 89.8214C171.873 89.0816 171.847 88.3163 171.923 87.551C172 86.8367 172.204 86.0714 172.178 85.3571C172.127 84.2857 171.923 83.1632 171.516 82.1683C170.956 80.7908 170.09 79.6683 169.377 78.3928C168.995 77.704 168.359 77.3469 167.748 77.0663C167.518 76.9387 167.289 76.8367 167.086 76.7602C166.933 76.5051 166.831 76.301 166.627 76.0459C166.067 75.9183 165.583 75.7908 164.896 75.4081C163.877 74.8469 162.681 74.5408 161.535 74.3622C160.058 74.1071 158.607 74.0306 157.232 74.5408C156.722 74.6938 156.137 74.9744 155.678 75C154.303 75.102 153.209 75.8673 152.139 76.5816C151.935 76.4796 151.732 76.403 151.324 76.7347C150.28 77.5 149.338 78.4183 148.651 79.4642C148.498 79.6938 148.345 80.0765 148.192 80.1785C147.785 80.4336 147.581 80.6377 147.581 81.1479C147.581 81.3265 147.25 81.7857 147.072 82.0663C146.614 82.6785 146.181 83.3163 145.824 83.9285C145.773 84.3877 145.875 84.8469 145.748 85.2551C145.239 87.3724 145.239 89.5663 145.646 91.6836C145.723 92.1938 145.723 92.6785 145.85 93.1887C145.977 93.6479 146.232 94.0816 146.461 94.5153C146.665 94.8979 146.767 95.3571 146.996 95.7398C146.996 95.7398 147.047 95.5102 147.072 95.3826C147.581 95.9183 147.301 96.1734 147.378 96.5306C148.116 96.8877 148.141 96.8877 148.091 97.6275C148.269 97.6785 148.473 97.7806 148.676 97.8571C149.211 98.903 149.949 100.179 150.942 100.689C151.248 100.867 151.426 100.995 151.706 101.224C152.801 102.117 153.947 103.138 155.398 103.393C156.137 103.469 156.366 103.469 156.697 103.826C157.13 103.801 157.512 103.393 158.123 103.954C158.785 104.49 159.549 104.209 160.236 104.26C160.491 104.26 160.847 104.133 161.025 104.209C161.662 104.413 162.273 104.668 162.884 104.821C163.394 104.796 163.877 104.821 164.387 104.719C164.743 104.668 164.768 104.566 164.692 104.413L164.463 104.362ZM147.581 91.1224V91.0714C147.581 91.0714 147.454 90.8928 147.53 91.0459C147.479 90.8673 147.53 90.9949 147.53 91.0969V91.1479L147.581 91.1224ZM149.618 82.551V82.3724L149.516 81.6071C149.669 81.352 149.797 81.0969 150 80.8673C150.484 80.3061 151.095 79.8724 151.553 79.2602C151.655 79.1071 151.884 78.9285 152.063 78.8775C152.827 78.6224 153.31 78.1887 153.845 77.4234C154.074 77.5255 154.252 77.6275 154.431 77.704C154.711 77.1938 155.195 76.8367 156.06 76.8622C155.602 77.2704 155.093 77.4744 154.66 77.7806C154.634 77.7806 154.507 77.704 154.405 77.6785C154.074 77.9336 153.743 78.1632 153.412 78.3928C153.081 78.6224 152.75 78.852 152.394 79.0816C152.037 79.3112 151.732 79.6428 151.477 79.9489C151.172 80.3061 150.891 80.6887 150.56 80.9693C150.255 81.2755 149.898 81.5051 149.466 81.6326C149.695 81.7602 149.924 81.8877 149.567 82.3724V82.551H149.618ZM148.065 83.903C148.218 84.2091 148.294 84.3622 148.422 84.6173C148.192 84.7704 148.04 84.8724 147.912 84.9744C147.912 85.051 147.938 85.1275 147.938 85.204C147.938 85.2806 147.912 85.3571 147.887 85.4336C147.861 85.3571 147.81 85.2806 147.785 85.204C147.785 85.153 147.861 85.0765 147.912 85C147.912 84.7194 147.989 84.4387 148.065 83.903ZM158.505 76.5051C157.97 76.6326 157.435 76.7857 156.926 76.9898C156.926 77.0408 156.926 77.1173 156.926 77.1683C156.926 77.2193 156.85 77.2704 156.799 77.3214C156.799 77.2704 156.722 77.1938 156.748 77.1173C156.748 77.0918 156.875 77.0408 156.952 76.9898C156.824 76.9387 156.722 76.8622 156.493 76.7602C157.028 76.5306 157.512 76.403 158.021 76.3265C158.174 76.301 158.326 76.454 158.479 76.5306C158.912 76.454 159.421 76.1734 159.778 76.5816L160.491 76.5051V76.6581L159.803 76.5816C159.625 76.6836 159.421 76.7602 159.243 76.8622C158.861 76.8622 158.632 76.7347 158.479 76.5051M154.558 79.1326C154.609 78.954 154.711 78.6989 154.787 78.4693H155.016C155.033 78.7074 154.872 78.9285 154.533 79.1326M168.944 85.5102C168.944 85.5102 168.868 85.4591 168.817 85.4081L168.995 84.8469L169.199 85.0765C169.123 85.2296 169.072 85.3826 168.97 85.5102M153.132 96.8112C153.132 96.8112 153.54 97.1428 153.514 97.2449C153.514 97.3469 152.521 96.6071 152.521 96.6071C152.521 96.6071 152.292 96.0204 152.343 96.0204C152.394 96.0204 153.132 96.8112 153.132 96.8112ZM147.505 89.6428C147.505 89.6428 147.479 89.7704 147.454 89.8469L147.301 89.6428L147.403 89.4898C147.403 89.4898 147.505 89.5918 147.505 89.6428ZM147.632 85.9438C147.632 85.9438 147.658 86.0714 147.683 86.1479C147.683 86.1479 147.632 86.1989 147.632 86.2245L147.581 86.0204L147.632 85.9438ZM169.173 86.8877H169.25C169.25 86.8877 169.25 86.9642 169.25 86.9898C169.25 86.9898 169.199 86.9898 169.173 86.9898V86.8622V86.8877ZM167.977 81.5816C167.977 81.5816 168.002 81.5306 168.028 81.5051C168.053 81.5306 168.104 81.5816 168.104 81.6071C168.104 81.6326 168.079 81.6581 168.053 81.6836C168.028 81.6581 167.977 81.6071 167.977 81.6071" fill="#A57B44"/>
<path d="M175.565 93.0103C175.335 93.4439 175.055 93.7756 174.546 93.8521C174.673 93.648 174.724 93.5205 174.801 93.3929C174.648 93.3929 174.495 93.4184 174.368 93.3929C174.241 93.3929 174.088 93.3419 173.986 93.2654C173.833 93.1378 173.859 92.6786 174.011 92.5256C174.113 92.4235 174.368 92.398 174.47 92.4746C174.801 92.7552 175.208 92.8827 175.59 93.0103H175.565Z" fill="#A57B44"/>
<path d="M175.972 90.7398C175.513 91.0969 175.844 91.3775 175.895 91.6837C175.743 91.7602 175.641 91.8367 175.539 91.8877C174.928 90.9694 174.953 90.9184 175.437 89.8469C175.794 89.8979 176.048 90.1786 175.972 90.7398Z" fill="#A57B44"/>
<path d="M176.659 88.954C176.787 88.954 176.939 88.954 177.092 88.954C176.99 89.6938 176.838 90.357 176.634 91.1223C176.227 90.7397 176.634 90.4081 176.634 90.1019C176.659 89.7448 176.634 89.3621 176.634 88.954" fill="#A57B44"/>
<path d="M174.139 95.051C173.782 94.847 173.833 94.4133 173.858 93.9031C174.189 94.2092 174.24 94.2092 174.113 95.0765L174.139 95.051Z" fill="#A57B44"/>
<path d="M176.659 88.1887C176.659 88.1887 176.863 88.1377 176.889 88.1887C176.94 88.2397 176.94 88.3673 176.99 88.4693C176.889 88.4693 176.787 88.4693 176.736 88.4183C176.685 88.3673 176.685 88.2397 176.685 88.1632L176.659 88.1887Z" fill="#A57B44"/>
<path d="M177.27 90.0001L177.499 89.4644L177.601 89.5154L177.372 90.0511L177.27 90.0001Z" fill="#A57B44"/>
<path d="M174.419 94.5154C174.419 94.5154 174.648 94.5154 174.775 94.5154L174.928 94.6684C174.826 94.6939 174.724 94.7195 174.622 94.745C174.571 94.694 174.521 94.6174 174.419 94.5154Z" fill="#A57B44"/>
<path d="M175.233 95.5868L175.055 95.4337L175.335 95.3827C175.335 95.3827 175.437 95.5102 175.412 95.5357C175.412 95.5613 175.284 95.5613 175.208 95.5868" fill="#A57B44"/>
<path d="M176.939 87.7551C176.939 87.7551 177.067 87.7551 177.092 87.7806C177.143 87.8317 177.194 87.9082 177.22 87.9847C177.22 87.9847 177.169 88.0612 177.169 88.0357C177.092 88.0102 177.016 87.9847 176.965 87.9082C176.939 87.8827 176.965 87.7806 176.939 87.7041V87.7551Z" fill="#A57B44"/>
<path d="M156.951 85.9693C156.951 85.9693 157.028 85.9183 157.079 85.8928C157.079 85.9438 157.079 85.9949 157.079 86.0459C157.079 86.0714 157.002 86.0969 156.977 86.1224V85.9693H156.951Z" fill="#A57B44"/>
<path d="M156.519 86.9133V86.9899C156.493 87.0154 156.442 87.0409 156.417 87.0664C156.417 87.0409 156.417 86.9899 156.417 86.9899C156.442 86.9899 156.493 86.9388 156.544 86.9388" fill="#A57B44"/>
<path d="M146.894 96.9644C146.894 96.9644 147.021 96.9644 147.072 97.0154C147.123 97.0664 147.148 97.1939 147.199 97.2705L146.919 97.1939V96.9644H146.894Z" fill="#A57B44"/>
<path d="M166.194 82.602C166.194 82.602 166.041 82.551 165.965 82.5255C165.965 82.4745 165.965 82.3979 166.016 82.3979C166.067 82.3979 166.143 82.3979 166.169 82.4235C166.194 82.4235 166.169 82.5255 166.194 82.602Z" fill="#A57B44"/>
<path d="M176.354 91.1479C176.201 91.0459 175.819 91.2755 175.972 90.7142L176.328 91.1479H176.354Z" fill="#A57B44"/>
<path d="M175.539 91.8878L175.641 92.1174L175.513 92.1939C175.513 92.1939 175.539 91.9899 175.539 91.8878Z" fill="#A57B44"/>
<path d="M175.768 88.8775V88.7755C175.819 88.7245 175.87 88.699 175.921 88.6735C175.921 88.699 175.921 88.7755 175.921 88.7755C175.87 88.8265 175.819 88.852 175.768 88.8775Z" fill="#A57B44"/>
<path d="M175.437 93.9795C175.437 93.9795 175.488 93.8774 175.513 93.8774C175.513 93.8774 175.564 93.903 175.615 93.9285C175.615 93.954 175.564 94.0305 175.539 94.0305C175.513 94.0305 175.488 94.005 175.437 93.9795Z" fill="#A57B44"/>
<path d="M177.016 87.4745V87.551C176.965 87.551 176.914 87.551 176.863 87.551V87.4235L177.041 87.4745H177.016Z" fill="#A57B44"/>
<path d="M176.888 89.7449V89.6428L176.99 89.6938C176.99 89.6938 176.965 89.7449 176.939 89.7704C176.939 89.7704 176.914 89.7704 176.888 89.7193" fill="#A57B44"/>
<path d="M166.042 90.1786C166.042 90.1786 166.067 90.102 166.092 90.0765H166.169C166.169 90.0765 166.118 90.1531 166.067 90.1786" fill="#A57B44"/>
<path d="M175.132 88.8265L175.183 88.75L175.259 88.8776C175.259 88.8776 175.208 88.9286 175.183 88.9031C175.183 88.9031 175.157 88.852 175.132 88.8265Z" fill="#A57B44"/>
<path d="M175.284 97.7551V97.6785C175.284 97.6785 175.335 97.602 175.361 97.6275C175.361 97.6275 175.386 97.6785 175.361 97.7041C175.361 97.7296 175.31 97.7551 175.259 97.7806" fill="#A57B44"/>
<path d="M174.699 96.0969H174.775C174.775 96.0969 174.852 96.0969 174.852 96.1479C174.852 96.1479 174.801 96.1479 174.775 96.1735L174.699 96.0969Z" fill="#A57B44"/>
<path d="M160.669 96.6327L161 96.7092C160.847 96.7092 160.72 96.7347 160.542 96.7602C160.516 96.7602 160.389 96.6837 160.312 96.6582H160.669V96.6327Z" fill="#A57B44"/>
<path d="M153.616 89.2345V89.1837C153.616 89.1837 153.565 89.2091 153.616 89.2599V89.2345Z" fill="#A57B44"/>
<path d="M148.498 79.3622L148.294 79.5408L148.498 79.3877V79.3622Z" fill="#A57B44"/>
<path d="M162.655 104.77L162.808 104.872L162.68 104.745L162.655 104.77Z" fill="#A57B44"/>
<path d="M157.944 103.878L157.843 104.005L157.97 103.903L157.944 103.878Z" fill="#A57B44"/>
<path d="M160.821 92.1937V92.2445C160.821 92.2445 160.745 92.2445 160.72 92.2191C160.72 92.2191 160.72 92.1937 160.745 92.1683H160.821V92.1937Z" fill="#A57B44"/>
<path d="M163.215 80.3571L163.139 80.4078C163.139 80.4078 163.189 80.4078 163.215 80.3824V80.3571Z" fill="#A57B44"/>
<path d="M176.15 92.1683L176.023 92.2959C176.023 92.2959 176.048 92.2194 176.074 92.2194C176.099 92.2194 176.125 92.1939 176.175 92.1939L176.15 92.1683Z" fill="#A57B44"/>
<path d="M174.113 95.0765C174.113 95.0765 174.164 95.1527 174.164 95.1781C174.164 95.1781 174.164 95.1273 174.138 95.0765H174.113Z" fill="#A57B44"/>
<path d="M176.507 87.0663L176.608 87.1425H176.557C176.557 87.1425 176.532 87.0917 176.507 87.0663Z" fill="#A57B44"/>
<path d="M176.15 92.1931L176.199 92.1683H176.15V92.1931Z" fill="#A57B44"/>
<path d="M160.771 83.4949C160.771 83.4949 160.974 83.2908 161.076 83.3163C161.204 83.3163 161.331 83.4694 161.458 83.5714C161.331 83.6224 161.204 83.7245 161.076 83.7245C160.974 83.7245 160.873 83.5714 160.771 83.4693V83.4949Z" fill="#A57B44"/>
<path d="M161.535 83.1632C161.535 83.1632 161.662 83.2142 161.713 83.2653C161.764 83.3418 161.764 83.4438 161.789 83.5203L161.713 83.5714C161.637 83.5204 161.56 83.4693 161.535 83.3928C161.535 83.3418 161.56 83.2652 161.586 83.1887L161.535 83.1632Z" fill="#A57B44"/>
<path d="M161.713 82.8315L161.662 82.9081C161.611 82.9081 161.535 82.8826 161.484 82.8571L161.56 82.7295L161.713 82.8315Z" fill="#A57B44"/>
<path d="M176.506 87.0401L176.481 87.0153L176.506 87.0649V87.0401Z" fill="#A57B44"/>
<path d="M165.812 56.7857C165.379 55.7908 162.579 51.097 162.018 49.1582C161 47.6531 160.542 45.3827 160.134 43.5714C159.93 42.6531 159.396 41.8623 159.116 40.9439C158.734 39.6174 158.632 38.2143 158.199 36.9388C157.715 35.5102 157.537 34.0051 157.843 32.5C157.919 32.1174 158.148 31.7602 158.25 31.4031C158.326 31.199 158.454 30.9439 158.326 30.8163C158.225 30.7143 157.792 30.7398 157.512 30.7143C157.512 29.8725 157.512 29.0561 157.639 28.2398C157.664 28.0612 157.919 27.8061 158.148 27.7551C158.657 27.6531 158.734 27.3725 158.988 27.1429C159.549 26.6072 158.912 25.8929 159.396 25.3827L159.065 25.2806C158.759 25.9439 158.479 26.6582 158.199 27.5255C157.664 26.9388 157.486 26.3776 157.639 25.8929C157.868 25.1021 157.512 24.1327 158.225 23.4949C158.326 23.4184 158.225 23.1633 158.25 23.0102C158.301 22.7551 159.447 21.2755 159.523 21.0204L159.803 20C159.905 19.6939 159.93 19.3623 160.058 19.0816C160.567 17.8827 161.611 17.0918 161.866 15.6378C161.891 15.4847 162.018 15.3316 162.171 15.2806C162.782 15.051 163.215 14.6684 163.572 14.1582C163.954 13.699 164.31 13.1633 164.794 12.8316C165.889 12.1684 165.863 10.5357 167.238 10.2041C167.416 10.1531 167.595 10.051 167.697 9.89797C167.926 9.56633 168.409 9.74491 168.104 9.18368C168.359 8.03572 168.104 8.41838 167.773 8.75001C167.391 8.95409 167.875 8.31633 167.951 8.08674C167.951 8.03572 168.078 8.01021 168.18 7.65307C168.359 7.29593 168.129 7.19389 168.129 7.04082C168.18 6.91327 168.231 6.50511 167.722 6.32654C167.136 6.45409 161.789 10.8674 161.229 11.0459C160.974 11.1225 160.72 11.25 160.567 11.4541C159.218 13.1123 157.537 14.6684 156.926 16.9388C156.748 17.6786 155.678 17.5 155.398 18.2143C154.252 20.8929 153.081 25.7398 152.877 28.5714C152.801 29.6684 152.445 30.9694 152.521 32.0408C152.521 32.1429 152.572 32.2959 152.674 32.347C153.412 32.8061 154.583 33.1888 154.558 33.7755C154.532 34.1582 154.532 34.6684 154.787 34.898C155.067 35.1531 155.144 35.3827 155.271 35.6888C155.627 36.4286 155.907 37.1429 155.831 38.0102C155.78 38.4184 155.958 38.801 156.417 38.9796C156.519 39.0306 156.544 39.1582 156.595 39.2347C156.417 39.5153 156.238 39.7959 156.035 40.1276C157.002 40.4847 156.824 41.3776 156.85 42.0153C156.9 43.2398 157.664 44.1837 157.817 45.3572C157.817 45.4847 158.123 45.5102 158.25 45.5868C158.377 45.6633 158.505 45.7653 158.657 45.8674C158.377 46.0459 158.199 46.148 158.021 46.25C158.606 46.6327 159.167 46.9898 159.752 47.347C158.937 47.9337 159.319 48.3163 159.574 48.6735C160.287 49.7959 161.076 50.7908 161.815 51.8112L162.859 53.3419" fill="#A57B44"/>
<path d="M156.671 22.5255C156.671 23.0612 156.493 23.2143 155.856 22.8316C156.086 22.7551 156.289 22.6531 156.671 22.5255Z" fill="#A57B44"/>
<path d="M154.991 31.3265C155.398 31.6072 155.449 31.8367 154.94 32.1429C154.482 31.8623 154.583 31.6327 154.991 31.3265Z" fill="#A57B44"/>
<path d="M155.322 30.5867L155.22 30.4337L155.907 30.1531L156.06 30.3827L155.322 30.5867Z" fill="#A57B44"/>
<path d="M155.195 34.3623L155.322 34.2347C155.449 34.3113 155.627 34.3368 155.729 34.4388C155.831 34.5154 155.857 34.6684 155.908 34.7705L155.755 34.847L155.22 34.3368L155.195 34.3623Z" fill="#A57B44"/>
<path d="M167.849 14.6429C167.213 15.051 166.652 15.5357 166.092 15.9949C165.787 16.301 165.481 16.6072 165.15 16.8878C164.819 17.1684 164.488 17.4235 164.055 17.602C163.852 17.6786 163.826 18.0357 163.724 18.2143C163.622 18.4184 163.495 18.6225 163.342 18.75C162.986 19.0306 162.502 19.2857 162.528 19.898C162.324 20.4337 161.993 20.4847 161.407 20.0255C161.535 19.3623 161.713 18.75 162.273 18.4184C162.528 18.2653 162.655 17.9592 162.808 17.7041C163.088 17.2704 163.444 16.8878 163.673 16.4031C164.234 15.1276 165.812 15.3316 166.5 14.2092C166.678 13.9031 167.315 14.2092 167.696 14.2602L167.824 14.5918L167.849 14.6429Z" fill="#A57B44"/>
<path d="M159.319 24.7194C159.243 24.1326 159.472 23.801 160.185 23.6479C160.083 24.1837 160.414 24.6684 159.319 24.7194Z" fill="#A57B44"/>
<path d="M161 22.0663C160.44 21.5306 160.898 21.301 160.975 20.9183C161.713 21.7347 161.713 21.7092 161 22.0663Z" fill="#A57B44"/>
<path d="M158.53 29.5663L158.25 29.3877L158.454 29.2346C158.454 29.2346 158.632 29.3622 158.683 29.4387C158.683 29.4387 158.581 29.5152 158.505 29.5663" fill="#A57B44"/>
<path d="M172.56 97.2194C173.222 97.3469 173.629 97.3214 174.037 97.3469C174.571 98.0357 174.317 98.5969 173.782 99.0051C172.662 99.949 171.338 100.638 169.886 100.842C170.09 100.612 170.294 100.408 170.497 100.179C171.414 99.3112 171.414 99.2602 170.752 97.6531C170.319 97.7551 170.37 98.0102 169.861 98.0357C169.861 97.8571 169.81 97.398 169.861 97.3469C170.803 96.8623 171.108 96.148 171.872 95.3571C172.687 94.5153 173.476 93.5204 173.935 92.3214C174.52 90.8929 174.953 89.2602 175.055 87.6531C175.055 87.4745 175.361 86.6327 175.463 86.5051C175.692 86.25 175.488 86.6837 175.768 86.4541C175.946 86.7602 176.328 87.0663 176.303 87.3725C176.125 88.9541 176.303 90.8673 174.953 91.9898C174.8 92.1173 174.673 92.398 174.699 92.602C174.469 93.9541 174.088 94.6174 173.553 95.2041C173.094 95.7143 172.814 96.2755 172.585 97.2449" fill="#A57B44"/>
</svg>
