<svg xmlns="http://www.w3.org/2000/svg" width="113.167" height="187.936" viewBox="0 0 113.167 187.936">
  <g id="Group_207" data-name="Group 207" transform="translate(-453.5 -338.5)">
    <path id="Path_3391" data-name="Path 3391" d="M523,501.758V427.576A11.576,11.576,0,0,1,534.576,416h0a11.576,11.576,0,0,1,11.576,11.576v56.513" transform="translate(-38.127 -42.679)" fill="none" stroke="#fff" stroke-linecap="round" stroke-miterlimit="10" stroke-width="5"/>
    <path id="Path_3392" data-name="Path 3392" d="M577,504l43.265,13.662a18.255,18.255,0,0,1,12.758,17.407v44.7l-15.3,21.841v15.083" transform="translate(-68.856 -92.756)" fill="none" stroke="#fff" stroke-linecap="round" stroke-miterlimit="10" stroke-width="5"/>
    <line id="Line_1" data-name="Line 1" y2="29.893" transform="translate(526.536 417.051)" fill="none" stroke="#fff" stroke-linecap="round" stroke-miterlimit="10" stroke-width="5"/>
    <line id="Line_2" data-name="Line 2" y2="29.893" transform="translate(545.497 422.654)" fill="none" stroke="#fff" stroke-linecap="round" stroke-miterlimit="10" stroke-width="5"/>
    <path id="Path_3393" data-name="Path 3393" d="M496.427,567.2H492.7a16.4,16.4,0,0,0-16.4,16.4v31.373l20.124,22.356v15.333" transform="translate(-11.554 -128.719)" fill="none" stroke="#fff" stroke-linecap="round" stroke-miterlimit="10" stroke-width="5"/>
    <path id="Path_3394" data-name="Path 3394" d="M456,398.316V381.293A40.293,40.293,0,0,1,496.293,341h0a40.293,40.293,0,0,1,40.293,40.293v17.022" transform="translate(0 0)" fill="none" stroke="#fff" stroke-linecap="round" stroke-miterlimit="10" stroke-width="5"/>
  </g>
</svg>
